<?xml version="1.0" standalone="no"?>
<!DOCTYPE svg PUBLIC "-//W3C//DTD SVG 20010904//EN"
 "http://www.w3.org/TR/2001/REC-SVG-20010904/DTD/svg10.dtd">
<svg version="1.0" xmlns="http://www.w3.org/2000/svg"
 width="400.000000pt" height="400.000000pt" viewBox="0 0 400.000000 400.000000"
 preserveAspectRatio="xMidYMid meet">
<metadata>
Created by potrace 1.11, written by Peter Selinger 2001-2013
</metadata>
<g transform="translate(0.000000,400.000000) scale(0.100000,-0.100000)"
fill="#000000" stroke="none">
<path d="M1795 3862 c-11 -2 -24 -8 -29 -13 -6 -5 -17 -9 -26 -9 -8 0 -51 -18
-95 -39 -84 -42 -213 -148 -264 -217 -15 -22 -35 -45 -44 -53 -9 -7 -17 -18
-17 -23 0 -6 -9 -23 -21 -39 -26 -37 -44 -159 -58 -397 -6 -95 -13 -177 -16
-182 -4 -6 -14 -10 -24 -10 -35 0 -54 -63 -49 -159 4 -77 10 -97 53 -189 42
-89 54 -106 86 -123 l38 -19 -1 -92 c0 -61 -4 -100 -13 -114 -8 -12 -25 -61
-39 -110 -37 -129 -99 -246 -166 -313 -88 -88 -201 -188 -255 -225 -27 -19
-99 -75 -160 -125 -60 -50 -151 -123 -202 -162 -112 -86 -162 -150 -220 -282
-24 -56 -60 -131 -79 -165 -41 -75 -101 -223 -155 -382 -39 -113 -39 -116 -39
-267 l0 -153 790 0 c488 1 790 5 790 11 0 5 5 9 11 9 5 0 7 -5 4 -11 -4 -6 3
-5 15 3 18 10 24 10 27 1 7 -19 50 -16 62 4 10 17 10 17 11 1 0 -26 47 -23 72
4 18 22 19 22 15 3 -3 -15 2 -20 20 -21 12 -1 21 1 18 5 -2 4 2 8 10 8 8 0 12
-4 9 -8 -2 -4 79 -8 181 -8 103 0 187 5 190 10 4 5 16 9 28 8 20 -1 20 -2 -3
-9 -24 -8 -24 -8 7 -9 27 -1 33 3 43 34 6 19 18 35 26 35 19 0 18 -16 -1 -24
-8 -3 -15 -15 -15 -26 0 -17 5 -21 28 -18 22 2 28 8 30 36 2 17 -1 32 -7 32
-6 0 -8 7 -5 15 9 23 19 18 20 -10 3 -46 14 -75 29 -75 8 0 15 6 15 13 0 9 2
9 9 -1 7 -12 12 -12 30 -1 22 15 29 39 10 39 -8 0 -7 6 2 18 13 16 12 16 -5 2
-17 -13 -54 -25 -42 -13 3 4 2 11 -3 17 -5 6 -5 20 0 31 6 17 8 17 8 3 1 -10
6 -18 12 -18 7 0 9 10 7 25 -3 13 0 26 6 29 6 2 3 5 -6 5 -9 1 -20 -4 -23 -9
-8 -13 -35 -13 -35 0 0 6 6 10 13 10 20 0 41 50 27 64 -7 7 -10 5 -10 -6 0 -9
-7 -19 -16 -22 -20 -8 -21 -8 -29 27 -6 23 -4 27 14 27 12 0 20 6 18 13 -1 7
6 11 18 10 11 -1 5 4 -14 13 -25 11 -36 12 -41 4 -4 -7 -9 3 -12 24 -3 30 -1
36 14 36 10 0 18 4 18 9 0 4 -10 8 -22 7 -19 -1 -22 4 -20 22 2 13 -1 29 -6
35 -16 19 -22 79 -10 100 9 17 8 19 -10 15 -14 -4 -22 0 -25 13 -3 10 -2 17 2
16 3 -1 6 3 6 8 0 6 -6 10 -13 10 -17 0 -35 32 -29 49 3 8 -9 20 -28 29 -26
12 -35 24 -41 52 -6 31 -24 50 -24 25 0 -5 -4 -10 -10 -10 -5 0 -10 6 -10 14
0 13 -27 31 -42 28 -5 -1 -8 7 -8 18 0 11 -4 20 -9 20 -6 0 -7 16 -4 37 5 27
3 34 -6 29 -7 -5 -10 -15 -6 -24 3 -8 0 -19 -7 -23 -18 -12 5 -49 48 -77 20
-13 33 -26 31 -29 -3 -3 3 -14 14 -26 10 -11 19 -27 19 -34 0 -7 7 -13 15 -13
16 0 50 -58 40 -68 -3 -4 -9 -2 -13 4 -4 6 -15 13 -24 17 -12 4 -16 12 -11 24
3 10 3 15 -2 11 -4 -4 -14 -3 -21 3 -14 11 -42 -2 -78 -37 l-22 -21 24 -11
c20 -9 23 -8 18 4 -7 19 42 70 54 58 5 -5 10 -23 12 -40 2 -28 4 -30 21 -20
14 8 21 8 24 0 2 -6 15 -9 30 -6 22 4 25 2 20 -12 -4 -10 -3 -15 3 -11 13 8
27 -31 36 -95 4 -27 9 -50 13 -50 3 0 6 -21 6 -48 -1 -26 5 -59 13 -74 16 -33
12 -100 -7 -106 -10 -3 -11 2 -5 19 17 52 12 88 -11 85 -27 -4 -28 -15 -4 -34
l23 -19 -33 -17 c-27 -15 -32 -22 -27 -42 8 -29 -4 -31 -24 -4 -13 18 -16 19
-39 4 -22 -15 -24 -15 -18 0 4 11 1 16 -11 17 -9 0 -12 3 -6 5 6 2 8 18 6 34
-2 17 0 30 6 30 6 0 9 11 7 25 -3 29 -14 45 -17 24 -3 -29 -4 -35 -16 -57 -7
-12 -18 -20 -24 -16 -7 4 -6 9 3 14 9 6 9 12 -4 24 -14 15 -16 14 -20 -2 -3
-11 -5 -7 -6 10 0 15 -8 33 -16 41 -13 13 -13 16 1 21 8 3 12 10 9 16 -4 6
-11 8 -16 5 -5 -3 -6 2 -2 11 4 11 3 15 -5 11 -6 -4 -13 1 -15 10 -3 10 -3 -2
-1 -27 2 -24 9 -47 14 -50 14 -9 2 -40 -15 -40 -7 0 -16 6 -18 13 -3 6 -6 2
-6 -10 -1 -16 3 -21 14 -17 11 5 13 2 9 -11 -6 -15 -4 -16 13 -7 10 6 24 8 29
4 13 -9 17 -65 4 -57 -6 3 -10 2 -10 -4 0 -17 18 -22 24 -6 3 8 11 15 17 15 8
0 8 -4 -1 -15 -11 -14 -7 -19 13 -16 4 0 7 -6 7 -15 0 -8 -4 -13 -9 -10 -4 3
-17 -2 -27 -10 -10 -9 -14 -13 -7 -10 14 7 27 -10 14 -18 -5 -3 -14 1 -21 9
-7 8 -20 15 -28 15 -14 0 -14 2 1 13 11 8 14 17 8 25 -11 19 -24 17 -32 -5 -6
-13 -8 -9 -8 16 -1 30 1 32 17 20 9 -7 14 -9 10 -5 -4 5 -3 15 4 23 9 12 6 13
-18 10 -23 -3 -28 -8 -26 -25 2 -16 -1 -19 -18 -15 -11 3 -20 13 -20 22 0 13
-2 13 -9 2 -13 -20 -24 5 -16 36 5 23 4 25 -9 14 -11 -9 -16 -10 -16 -2 0 6 9
16 20 23 11 7 20 16 20 19 0 4 -9 5 -20 2 -14 -4 -20 0 -20 11 0 10 -5 14 -11
11 -6 -4 -7 -19 -4 -36 4 -18 3 -29 -4 -29 -6 0 -11 5 -11 11 0 7 -10 9 -25 5
-14 -4 -25 -2 -25 3 0 12 29 23 41 15 14 -8 11 6 -6 22 -12 13 -12 17 3 35 16
18 18 18 29 2 12 -15 13 -15 13 0 0 18 -33 40 -45 29 -5 -4 -5 1 -2 11 4 9 2
17 -3 17 -6 0 -10 -5 -10 -11 0 -8 -4 -8 -12 -1 -10 8 -13 4 -15 -16 0 -15 4
-30 10 -34 8 -5 8 -16 -1 -42 -13 -36 -9 -61 9 -51 5 4 9 2 9 -4 0 -5 -4 -13
-10 -16 -5 -3 -10 -1 -10 5 0 8 -6 7 -21 -1 -17 -9 -23 -8 -30 2 -7 11 -9 11
-9 1 0 -9 -7 -11 -19 -7 -15 4 -20 0 -23 -17 -2 -16 -9 -22 -21 -20 -12 2 -19
-6 -23 -28 -4 -16 -11 -30 -16 -30 -5 0 -6 4 -3 10 3 5 8 28 11 49 4 39 4 39
-20 28 -27 -13 -32 -48 -6 -40 10 3 9 0 -4 -11 -23 -19 -37 -21 -33 -5 1 6 -3
13 -10 16 -7 3 -9 -3 -6 -16 5 -18 1 -21 -26 -21 -18 0 -30 4 -27 9 3 5 16 7
29 4 22 -4 22 -4 1 9 -12 7 -19 19 -16 26 4 12 0 12 -19 1 -13 -7 -28 -14 -34
-15 -27 -3 -28 -7 -5 -14 l25 -8 -27 -1 c-21 -1 -29 -7 -35 -28 l-6 -28 -8 29
c-5 17 -7 30 -6 30 15 4 41 26 40 34 -1 6 4 16 13 22 12 11 13 10 8 -5 -6 -15
-3 -16 17 -10 13 4 27 12 30 17 3 5 9 3 12 -6 4 -9 12 -16 19 -15 10 0 10 2 1
6 -19 7 -16 23 5 24 10 0 6 5 -12 11 -22 8 -30 7 -37 -3 -7 -12 -9 -12 -9 0 0
8 8 20 18 27 16 12 15 13 -5 15 -36 2 -41 4 -49 11 -4 4 -14 2 -22 -5 -13 -9
-14 -9 -8 1 4 7 2 12 -7 12 -8 0 -18 10 -22 23 l-8 22 -4 -23 c-2 -12 -8 -22
-13 -22 -18 0 -16 28 4 71 24 48 23 69 0 69 -17 0 -19 37 -2 42 6 2 8 10 4 17
-10 16 -39 -6 -32 -25 3 -7 1 -16 -5 -20 -5 -3 -7 -14 -4 -25 4 -10 2 -19 -2
-19 -15 0 -32 22 -27 35 3 7 -4 15 -15 18 -12 3 -21 1 -21 -4 0 -5 -4 -9 -10
-9 -5 0 -7 7 -4 15 4 8 12 15 19 15 7 0 16 6 18 13 3 7 6 5 6 -5 1 -10 7 -18
15 -18 8 0 13 10 12 25 -1 20 -5 23 -23 19 -17 -5 -22 -1 -25 17 -2 12 -11 23
-21 25 -11 1 -21 5 -24 7 -2 3 -17 1 -33 -3 -24 -7 -28 -6 -22 8 5 14 3 15
-10 4 -13 -10 -16 -9 -21 8 -4 16 0 20 19 20 14 0 24 6 24 14 0 8 6 17 13 19
8 4 8 6 0 6 -6 1 -9 10 -6 22 5 19 3 20 -14 10 -27 -14 -33 -6 -22 32 12 41
12 39 -11 32 -11 -4 -20 -2 -20 4 0 6 4 11 9 11 5 0 11 12 14 26 3 17 1 22 -5
16 -6 -6 -17 -8 -24 -5 -8 3 -14 -1 -14 -10 0 -8 -7 -18 -16 -21 -13 -5 -15
-1 -12 23 3 19 0 32 -9 35 -9 4 -13 -6 -13 -35 0 -23 -4 -38 -9 -34 -6 3 -15
-3 -21 -14 -13 -25 5 -38 19 -14 9 16 11 15 12 -7 1 -14 0 -35 -1 -47 -1 -20
3 -23 35 -23 29 0 36 3 33 17 -2 9 -14 20 -28 24 l-25 7 27 1 c16 1 28 8 31
19 4 15 11 -30 8 -50 0 -5 5 -8 13 -8 8 0 18 -5 22 -12 5 -8 2 -9 -9 -5 -9 3
-19 2 -22 -3 -4 -6 2 -10 12 -11 10 0 13 -3 6 -5 -7 -3 -21 0 -32 6 -17 9 -21
8 -21 -5 0 -13 -4 -14 -20 -5 -17 9 -20 8 -20 -10 0 -11 6 -20 13 -20 8 0 7
-4 -3 -10 -8 -5 -10 -10 -4 -10 7 0 14 -9 17 -19 4 -15 10 -18 28 -14 22 6 23
5 8 -10 -10 -10 -25 -14 -40 -10 -14 3 -21 2 -16 -3 5 -5 13 -10 18 -10 5 -1
13 -2 19 -3 5 0 3 -18 -5 -40 -13 -37 -12 -39 7 -44 11 -3 17 -10 14 -15 -3
-5 5 -12 19 -14 14 -3 25 -1 25 3 0 5 -5 9 -11 9 -6 0 -4 7 5 15 19 20 43 21
27 1 -6 -8 -10 -30 -8 -49 3 -25 0 -38 -10 -41 -11 -5 -14 1 -11 21 2 20 -2
29 -14 31 -11 2 -18 -3 -18 -12 0 -9 -5 -16 -11 -16 -6 0 -8 7 -5 16 5 13 2
15 -14 11 -14 -4 -20 0 -20 11 0 15 -2 15 -10 2 -14 -22 -12 -4 4 35 8 19 11
35 5 35 -5 0 -9 -6 -10 -12 0 -7 -5 2 -10 19 -7 26 -14 32 -32 30 -18 -2 -22
4 -24 28 -2 25 -1 27 7 10 8 -19 9 -19 9 2 1 12 -5 24 -11 27 -9 3 -3 13 17
30 16 14 26 28 22 32 -4 4 -7 2 -7 -4 0 -7 -9 -12 -20 -12 -21 0 -28 26 -9 32
7 2 7 12 0 31 -14 36 -14 80 -1 72 6 -3 10 -2 10 4 0 5 -4 13 -10 16 -15 10
-12 72 5 89 14 13 14 16 0 24 -10 5 -18 29 -22 65 -5 51 -4 57 13 57 18 1 18
1 2 11 -23 13 -23 33 0 25 16 -7 16 -6 0 10 -13 13 -14 22 -6 45 5 16 14 29
20 29 6 0 8 -6 5 -12 -3 -7 -8 -21 -12 -30 -5 -13 -2 -18 8 -18 10 0 14 -8 12
-25 -1 -14 2 -25 7 -25 13 0 6 113 -7 122 -6 4 -1 15 12 27 27 26 35 9 17 -36
-12 -27 -11 -32 4 -39 9 -4 21 -6 26 -5 4 1 5 -10 2 -24 -4 -17 -2 -25 6 -25
8 0 13 14 14 35 1 20 -3 33 -10 32 -18 -3 -17 105 2 126 15 16 15 17 -1 12
-12 -5 -16 -1 -14 17 0 12 5 26 10 29 5 4 4 10 -2 13 -13 8 -41 -50 -42 -86
l0 -23 -9 22 c-5 13 -12 23 -16 23 -3 0 -4 -7 -1 -15 6 -14 -10 -32 -19 -22
-10 10 9 57 22 57 8 0 14 11 14 27 0 14 3 23 7 20 3 -4 12 1 19 11 14 19 33 8
39 -24 2 -11 4 -20 4 -22 1 -2 14 5 31 14 32 20 50 13 30 -11 -11 -13 -10 -19
5 -35 9 -10 15 -25 12 -32 -2 -7 0 -21 5 -30 8 -17 10 -17 28 0 17 14 18 19 7
27 -21 15 -39 54 -31 66 4 7 15 1 29 -17 13 -16 27 -24 34 -20 6 4 9 12 6 17
-8 12 6 11 25 -1 8 -5 10 -10 3 -10 -6 0 -10 -8 -8 -17 2 -14 10 -17 38 -15
19 1 38 -2 42 -8 4 -6 -5 -10 -20 -10 -24 0 -25 -2 -11 -15 19 -19 35 -19 58
2 10 9 28 17 41 18 12 1 22 7 22 12 0 6 4 15 8 20 5 4 8 -1 7 -12 -4 -38 0
-47 16 -41 12 4 15 2 11 -9 -4 -8 -2 -17 3 -20 6 -4 10 1 10 9 0 9 5 16 10 16
6 0 10 -6 10 -14 0 -10 8 -12 33 -7 37 8 87 -7 87 -26 0 -7 9 -13 20 -13 17 0
19 -5 15 -28 -6 -25 -5 -25 8 -9 12 14 16 15 26 4 6 -8 8 -16 5 -19 -3 -3 2
-5 10 -5 37 4 155 -104 126 -115 -5 -2 -2 -14 6 -28 9 -14 13 -17 10 -8 -8 27
14 32 31 7 l16 -22 8 21 c5 12 13 22 20 22 7 0 8 -7 4 -18 -12 -28 -11 -45 4
-50 9 -3 11 1 7 16 -4 12 -1 26 9 35 8 9 15 19 15 24 0 12 -43 11 -52 -1 -10
-14 -41 22 -34 40 3 8 10 12 16 9 5 -3 10 -1 10 4 0 6 -7 11 -15 11 -9 0 -15
6 -14 12 4 35 -2 45 -26 43 -14 -2 -25 2 -25 8 0 7 -5 5 -10 -3 -8 -13 -10
-12 -10 3 0 9 -8 17 -17 17 -16 0 -16 2 -3 11 11 8 12 12 3 16 -7 2 -13 9 -13
14 0 17 82 4 92 -14 5 -9 17 -17 27 -17 9 0 30 -13 46 -30 16 -17 23 -30 16
-30 -7 0 -9 -5 -6 -10 4 -6 11 -8 16 -4 11 6 89 -70 89 -86 0 -6 5 -10 10 -10
6 0 10 6 10 13 0 8 11 19 25 25 35 16 31 29 -10 36 -43 8 -69 43 -59 80 4 17
2 26 -6 26 -7 0 -10 -7 -6 -15 3 -8 3 -15 0 -15 -15 0 -104 73 -104 85 0 11
18 4 40 -15 13 -11 25 -20 27 -20 8 0 -83 103 -139 159 -32 31 -58 62 -58 69
0 6 -7 12 -15 12 -8 0 -15 5 -15 10 0 6 9 10 20 10 11 0 20 -4 20 -10 0 -5 6
-10 14 -10 8 0 31 -9 51 -21 23 -14 47 -20 70 -17 27 3 35 0 39 -15 3 -13 10
-17 24 -13 13 4 22 1 25 -9 5 -11 16 -14 41 -11 25 4 36 1 40 -11 3 -8 13 -13
20 -10 8 3 20 -1 26 -9 7 -8 19 -14 26 -14 16 0 19 -16 4 -25 -7 -4 -7 -11 -2
-18 12 -15 10 -45 -7 -84 -10 -25 -10 -42 3 -99 13 -62 22 -59 18 6 -3 54 21
116 63 165 25 29 57 77 72 106 14 30 44 79 65 109 21 30 38 63 38 72 0 9 8 36
18 60 18 41 48 174 44 191 -1 4 2 7 7 7 21 0 35 -264 15 -281 -7 -6 -23 -36
-34 -67 -12 -30 -29 -67 -39 -81 -10 -14 -31 -54 -47 -88 -15 -34 -31 -57 -35
-52 -3 6 -6 -26 -7 -70 0 -45 -11 -132 -23 -193 -18 -91 -27 -117 -46 -132
-13 -10 -21 -21 -18 -24 3 -4 10 0 16 8 8 13 12 12 24 -4 8 -11 15 -27 15 -35
0 -13 -2 -13 -9 -2 -6 10 -10 10 -16 1 -6 -9 -10 -9 -17 1 -7 10 -8 8 -3 -6 4
-11 9 -39 12 -62 5 -34 2 -43 -16 -52 -19 -11 -20 -12 -3 -30 11 -11 21 -15
29 -9 6 5 12 5 15 -2 3 -10 24 -17 56 -19 7 -1 10 -5 7 -11 -3 -5 -2 -10 4
-10 5 0 13 5 16 10 3 6 15 10 26 10 10 0 19 4 19 10 0 5 -3 9 -7 9 -50 -8 -71
20 -32 42 18 9 20 17 14 52 -3 23 -7 59 -8 80 -1 28 -5 37 -19 37 -21 0 -25
49 -6 68 9 9 9 12 0 12 -15 0 -15 28 -1 124 9 59 15 76 33 84 18 9 19 11 3 11
-16 1 -18 6 -12 42 4 22 13 53 21 67 8 15 14 34 14 42 1 8 14 40 30 70 17 30
30 61 30 68 0 6 7 12 15 12 9 0 19 10 24 23 5 13 16 29 25 36 19 16 22 35 4
25 -7 -4 -6 1 3 12 15 19 69 134 69 149 0 4 9 18 20 32 11 14 20 34 20 43 0
19 30 82 30 65 1 -14 50 104 58 135 3 13 11 31 19 38 14 15 17 50 5 68 -4 6
-27 15 -52 19 -25 4 -56 15 -70 25 -55 38 -67 41 -86 22 -17 -16 -17 -16 -12
6 7 24 1 27 -21 13 -10 -7 -20 -2 -33 15 -11 13 -26 24 -34 24 -8 0 -12 5 -9
11 4 5 2 23 -4 38 -9 21 -8 49 4 121 8 52 14 136 14 185 -2 88 -2 87 -10 -40
-5 -71 -14 -143 -20 -160 -19 -48 -63 -115 -76 -115 -7 0 -17 -8 -22 -17 -6
-10 -11 -13 -11 -8 0 6 -5 3 -10 -5 -8 -13 -11 -13 -24 0 -25 26 -55 114 -45
132 16 28 23 134 10 143 -19 11 -24 -1 -9 -24 8 -13 9 -23 3 -28 -6 -5 -9 -7
-8 -5 1 2 -5 12 -14 21 -12 14 -23 16 -52 11 -21 -4 -48 -5 -61 -3 -20 3 -21
1 -10 -14 7 -10 -1 -2 -18 17 -17 19 -38 43 -46 52 -12 14 -21 16 -41 8 -30
-11 -34 -9 -108 63 -44 44 -48 52 -43 80 22 108 24 227 4 265 -6 12 -32 32
-57 43 -25 11 -57 31 -71 44 -34 33 -62 41 -157 50 -90 8 -116 22 -95 55 7 11
7 20 2 22 -6 2 1 25 15 52 14 27 25 60 25 72 0 12 5 24 11 26 8 3 12 33 12 86
0 45 2 80 5 78 2 -3 13 5 24 17 20 22 20 20 2 -30 -4 -10 7 1 25 25 35 48 28
46 189 31 111 -10 115 -10 160 14 53 28 158 47 258 47 77 0 127 -22 162 -74
37 -55 44 -93 47 -279 3 -184 11 -277 24 -277 5 0 16 18 26 41 15 32 19 66 19
172 1 233 -39 461 -90 514 -7 7 -15 32 -19 55 -4 24 -13 50 -20 58 -7 8 -16
24 -19 36 -4 13 -29 32 -64 49 -31 15 -78 43 -103 61 -62 45 -109 64 -159 64
-23 0 -60 4 -83 10 -44 10 -227 18 -262 12z m-3 -1008 c20 -4 39 -12 41 -18 4
-9 -20 -13 -84 -15 -97 -3 -117 2 -98 25 12 15 76 18 141 8z m38 -81 c14 -10
39 -25 55 -33 27 -14 30 -20 32 -69 1 -47 -3 -62 -34 -108 -19 -29 -41 -56
-47 -61 -7 -4 -29 -29 -48 -57 -22 -31 -46 -53 -64 -59 -78 -23 -91 -33 -97
-73 -2 -21 0 -57 5 -80 23 -95 -21 -101 -52 -8 -24 71 -21 110 8 119 25 8 21
32 -16 90 -21 34 -32 62 -32 87 0 21 -5 41 -10 44 -6 3 -7 17 -4 31 5 20 2 24
-15 24 -12 0 -21 3 -21 8 1 13 38 52 50 52 6 0 9 4 5 9 -3 6 17 11 47 13 37 2
52 7 50 16 -2 10 10 11 48 6 35 -5 50 -3 50 5 0 6 11 16 25 21 14 5 25 16 25
25 0 20 10 19 40 -2z m110 -264 c0 -10 -7 -19 -15 -19 -15 0 -21 31 -9 43 11
10 24 -3 24 -24z m110 -229 c9 -17 8 -20 -9 -20 -11 0 -23 5 -26 10 -4 6 -11
8 -16 5 -5 -4 -9 -2 -9 3 0 28 45 30 60 2z m210 -9 c0 -11 -25 -21 -53 -21
-22 1 -22 1 -3 15 22 17 56 20 56 6z m-87 -29 c16 -1 27 -8 27 -16 0 -11 9
-11 49 4 70 27 83 15 85 -81 1 -74 1 -75 -47 -142 -26 -37 -54 -67 -62 -67 -8
0 -17 -11 -21 -25 -5 -21 -9 -23 -26 -14 -13 7 -24 7 -30 1 -6 -6 -19 -5 -38
4 -20 11 -35 12 -54 4 -15 -5 -25 -14 -22 -18 3 -5 -5 -7 -17 -6 -12 1 -28 3
-36 3 -9 1 -11 8 -8 22 8 31 -2 49 -28 49 -13 0 -26 7 -29 16 -4 11 -10 13
-19 6 -20 -16 -95 27 -82 48 4 6 1 18 -7 28 -9 11 -4 10 17 -5 20 -14 46 -21
75 -21 25 0 52 -2 60 -3 25 -5 144 13 158 23 17 14 15 28 -3 28 -8 0 -15 -6
-15 -12 0 -10 -2 -10 -8 -1 -13 21 -60 32 -111 26 -48 -5 -50 -4 -57 21 -3 14
-9 26 -13 26 -8 0 -61 46 -61 53 0 4 9 3 20 -1 26 -10 111 -2 104 9 -3 5 -16
9 -30 9 -22 0 -32 18 -18 32 5 5 156 5 247 0z m-279 -17 c-4 -8 -8 -15 -10
-15 -2 0 -4 7 -4 15 0 8 4 15 10 15 5 0 7 -7 4 -15z m-178 -13 c18 -12 46 -73
40 -88 -7 -18 -35 -18 -58 0 -19 14 -25 66 -8 66 5 0 7 7 4 15 -7 16 4 19 22
7z m862 -264 c29 -48 102 -273 101 -311 l-2 -32 -6 35 c-4 23 -14 38 -29 45
-17 7 -22 17 -21 40 2 38 -27 137 -57 194 -20 38 -23 61 -9 61 2 0 12 -15 23
-32z m82 -22 c0 -8 -4 -18 -10 -21 -5 -3 -10 3 -10 14 0 12 5 21 10 21 6 0 10
-6 10 -14z m6 -446 l-14 -55 3 55 c2 30 7 71 12 90 l8 35 2 -35 c2 -19 -3 -60
-11 -90z m-341 48 c-2 -13 -15 -52 -29 -87 -14 -36 -26 -77 -26 -93 0 -17 -5
-28 -14 -28 -16 0 -126 117 -126 135 0 7 -6 16 -12 18 -7 3 1 6 17 7 52 3 74
9 113 34 21 13 47 26 58 29 10 2 20 5 21 6 1 0 0 -9 -2 -21z m-1357 -156 c4
-23 -21 -32 -34 -11 -3 6 -19 9 -35 5 -21 -4 -27 -2 -23 9 5 13 42 24 74 21 8
-1 16 -11 18 -24z m-19 -51 c17 -10 21 -9 21 4 0 8 9 15 20 15 26 0 26 -2 -11
-41 -17 -18 -26 -35 -20 -37 20 -7 11 -20 -20 -31 -39 -14 -50 -14 -26 0 23
13 22 26 -3 34 -24 8 -27 35 -3 35 12 0 14 3 7 10 -18 18 -41 1 -36 -26 4 -24
3 -24 -24 -12 -21 10 -23 14 -11 16 10 2 17 13 17 26 0 12 3 25 6 28 6 7 52
-5 83 -21z m-119 -7 c0 -8 -5 -12 -10 -9 -6 4 -8 11 -5 16 9 14 15 11 15 -7z
m216 -10 c-5 -14 -9 -15 -19 -5 -9 9 -9 14 3 21 18 11 24 6 16 -16z m70 -1
c-13 -27 -26 -30 -26 -5 0 22 5 29 23 29 11 0 11 -6 3 -24z m104 -3 c0 -5 -7
-10 -15 -10 -8 0 -15 5 -15 10 0 6 7 10 15 10 8 0 15 -4 15 -10z m-148 -59
c-2 -28 -7 -49 -11 -46 -12 7 -81 -15 -81 -25 0 -6 -4 -10 -10 -10 -16 0 -12
14 10 37 14 15 16 23 7 27 -8 3 -6 10 8 21 17 14 20 14 23 1 3 -13 6 -12 23 2
10 9 19 25 19 35 0 10 3 16 8 14 4 -3 5 -28 4 -56z m-295 -3 c-3 -8 -6 -5 -6
6 -1 11 2 17 5 13 3 -3 4 -12 1 -19z m1113 -8 c14 -10 23 -21 20 -23 -3 -3
-18 6 -33 19 -33 28 -23 32 13 4z m-1050 -20 c-14 -9 -6 -15 15 -10 14 3 -1
-11 -27 -25 -17 -8 -22 -18 -20 -39 2 -18 -1 -25 -7 -21 -6 3 -11 13 -11 21 0
11 -8 14 -27 12 -17 -2 -28 -9 -28 -18 0 -8 -5 -15 -10 -15 -6 0 -9 6 -9 12 1
7 -2 10 -7 7 -5 -3 -9 0 -9 6 0 13 43 30 76 30 13 0 24 5 24 11 0 5 5 7 10 4
6 -3 10 -2 10 4 0 5 -5 13 -11 16 -6 5 -4 12 8 20 12 9 21 10 28 4 6 -7 5 -13
-5 -19z m-83 5 c0 -8 -4 -12 -9 -9 -4 3 -8 9 -8 15 0 5 4 9 8 9 5 0 9 -7 9
-15z m203 -5 c0 -5 -4 -10 -10 -10 -5 0 -10 5 -10 10 0 6 5 10 10 10 6 0 10
-4 10 -10z m-45 -10 c-3 -5 1 -10 9 -10 19 0 20 -5 6 -31 -9 -16 -7 -19 10
-19 24 0 27 -15 4 -24 -19 -7 -44 22 -36 42 3 8 -1 18 -8 22 -13 8 -5 30 11
30 6 0 7 -4 4 -10z m135 -24 c0 -3 -4 -8 -10 -11 -5 -3 -10 -1 -10 4 0 6 5 11
10 11 6 0 10 -2 10 -4z m926 -11 c10 -8 15 -14 9 -14 -5 0 -19 6 -29 14 -11 8
-15 15 -10 15 6 0 19 -7 30 -15z m-1086 1 c0 -9 -40 -13 -46 -5 -3 5 6 9 20 9
14 0 26 -2 26 -4z m140 -16 c0 -5 -7 -10 -15 -10 -8 0 -15 5 -15 10 0 6 7 10
15 10 8 0 15 -4 15 -10z m36 -17 c-2 -16 -5 -31 -5 -35 -1 -5 -15 -8 -32 -8
-27 0 -30 -2 -19 -16 12 -13 8 -15 -26 -13 -22 2 -46 -1 -54 -6 -8 -5 -11 -4
-7 2 4 6 0 14 -9 17 -9 4 -14 9 -11 13 4 3 2 12 -5 20 -6 7 -8 16 -4 20 3 4
12 -2 20 -12 9 -12 20 -16 35 -12 17 4 21 2 17 -8 -3 -8 -1 -17 5 -20 5 -4 8
-3 7 2 -5 17 24 53 42 53 11 0 20 7 20 15 0 8 7 15 15 15 12 0 14 -7 11 -27z
m609 17 c3 -5 -1 -10 -9 -10 -9 0 -16 5 -16 10 0 6 4 10 9 10 6 0 13 -4 16
-10z m-570 -10 c-3 -5 -11 -10 -16 -10 -6 0 -7 5 -4 10 3 6 11 10 16 10 6 0 7
-4 4 -10z m-325 -30 c0 -5 -2 -10 -4 -10 -2 0 -12 -3 -22 -7 -16 -6 -17 -5 -4
10 17 19 30 22 30 7z m105 -29 c-2 -18 -20 -25 -41 -17 -13 5 -14 9 -4 20 15
19 48 16 45 -3z m-99 -26 c-20 -14 -40 -25 -44 -25 -4 0 1 5 11 11 9 5 17 17
17 24 0 10 10 15 26 15 26 0 26 -1 -10 -25z m270 -40 c-6 -28 -10 -32 -31 -27
-14 2 -25 8 -25 13 0 5 -7 9 -15 9 -8 0 -15 -4 -15 -9 0 -5 -9 -7 -20 -4 -33
9 -23 -12 12 -25 21 -8 36 -8 42 -2 15 15 29 12 22 -5 -7 -18 5 -20 22 -3 9 9
12 7 12 -10 0 -20 -10 -27 -32 -23 -4 0 -5 -6 -2 -14 4 -9 -1 -18 -12 -22 -11
-4 -28 -15 -38 -25 -11 -10 -22 -15 -25 -12 -3 3 1 9 9 14 11 7 11 11 1 24 -9
11 -10 20 -2 33 6 10 11 12 11 6 0 -12 30 -19 30 -8 0 19 -27 32 -49 24 -13
-5 -32 -7 -42 -4 -29 9 -23 -14 6 -25 30 -11 32 -25 6 -47 -11 -9 -18 -20 -15
-24 3 -5 -11 -2 -31 7 -20 8 -41 12 -46 8 -6 -3 -5 3 3 15 7 11 24 25 38 30
22 8 22 10 5 10 -12 1 -27 -5 -34 -11 -11 -11 -14 -10 -18 0 -3 6 -9 9 -15 6
-6 -4 -8 -1 -6 7 3 8 15 13 27 12 12 -2 20 1 17 6 -3 5 5 12 19 15 29 7 31 18
9 40 -8 9 -11 16 -5 16 5 0 17 -7 25 -16 15 -14 16 -14 16 0 0 9 7 16 16 16
13 0 14 3 5 14 -10 12 -4 14 38 14 28 1 59 5 68 11 10 6 14 11 10 11 -5 0 -5
6 0 13 11 17 16 -17 9 -58z m-166 22 c0 -8 -6 -14 -14 -14 -8 0 -12 6 -9 14 3
7 9 13 14 13 5 0 9 -6 9 -13z m-80 -22 c-7 -8 -22 -15 -34 -15 -20 1 -20 2 4
15 33 19 46 19 30 0z m12 -57 c-19 -10 -38 -16 -40 -13 -3 3 1 5 9 6 8 0 6 4
-6 9 -18 8 -17 9 8 9 15 1 27 6 27 12 0 5 -6 7 -12 3 -7 -4 -4 2 7 13 l20 20
12 -21 c10 -19 8 -23 -25 -38z m1158 32 c0 -5 -7 -10 -16 -10 -8 0 -12 5 -9
10 3 6 10 10 16 10 5 0 9 -4 9 -10z m-1210 -96 c-13 -15 -53 -11 -58 7 -3 11
-1 11 7 -1 7 -10 11 -11 11 -3 0 7 7 10 15 7 10 -4 15 0 15 12 0 16 2 16 10 4
5 -9 5 -19 0 -26z m287 -28 c-1 -22 -6 -32 -14 -29 -7 3 -13 0 -13 -6 0 -6 -6
-11 -13 -11 -8 0 -22 -9 -32 -20 -18 -20 -18 -20 14 -4 17 8 37 14 44 11 7 -3
4 -7 -8 -12 -11 -3 -32 -13 -46 -21 -14 -7 -28 -11 -31 -9 -3 3 -5 -2 -5 -10
0 -17 13 -20 22 -5 3 6 12 10 18 10 7 0 3 -8 -8 -16 -11 -8 -31 -13 -43 -11
-22 4 -22 3 -8 -11 12 -13 18 -13 31 -2 22 18 31 4 11 -19 -16 -17 -16 -19 5
-24 27 -7 42 0 35 18 -2 7 4 15 15 18 25 7 25 27 -1 34 -11 3 -18 9 -15 13 8
13 44 -1 47 -18 2 -9 2 -33 0 -53 -4 -35 -6 -37 -27 -29 -13 5 -26 5 -32 -1
-11 -11 -43 -2 -43 12 0 5 -11 9 -25 9 -14 0 -25 5 -25 10 0 6 -9 10 -20 10
-11 0 -20 -4 -20 -10 0 -5 -7 -10 -17 -10 -15 0 -15 1 0 18 19 21 23 47 6 36
-6 -3 -14 -1 -18 5 -4 6 -22 13 -39 14 l-31 2 26 27 c31 32 45 29 17 -4 -17
-20 -17 -21 -1 -8 16 12 20 12 27 0 5 -8 12 -11 16 -7 4 4 13 -1 19 -10 11
-15 15 -15 29 -4 23 19 20 30 -6 24 -22 -4 -22 -4 -3 8 11 7 30 23 42 36 13
13 34 23 50 23 22 0 25 2 13 10 -13 8 -12 10 3 10 10 0 16 4 12 9 -5 9 21 30
37 31 5 0 7 -15 5 -34z m-372 14 c3 -5 1 -10 -4 -10 -6 0 -11 5 -11 10 0 6 2
10 4 10 3 0 8 -4 11 -10z m124 -8 c-7 -10 -18 -19 -25 -19 -19 0 -18 7 4 23
24 19 34 17 21 -4z m-9 -41 c0 -5 -8 -12 -17 -15 -14 -6 -15 -9 -4 -15 10 -6
10 -10 1 -16 -18 -11 -24 3 -12 30 11 24 32 35 32 16z m110 -21 c0 -14 -28
-19 -33 -6 -3 6 4 13 14 13 10 1 19 -2 19 -7z m-176 -35 c-4 -8 -11 -15 -16
-15 -6 0 -5 6 2 15 7 8 14 15 16 15 2 0 1 -7 -2 -15z m46 -51 c-8 -8 -23 -20
-34 -26 -18 -9 -17 -7 4 15 27 28 51 37 30 11z m1677 -9 c8 -22 -6 -33 -17
-15 -13 20 -12 30 0 30 6 0 13 -7 17 -15z m-1581 -51 c-11 -8 -25 -14 -30 -13
-6 0 -1 5 12 11 12 6 22 16 22 21 0 6 3 7 7 3 5 -4 -1 -14 -11 -22z m-101 -17
c-4 -8 -14 -18 -23 -21 -9 -3 -24 -9 -32 -12 -8 -4 1 7 20 24 37 32 44 34 35
9z m145 19 c0 -3 -4 -8 -10 -11 -5 -3 -10 -1 -10 4 0 6 5 11 10 11 6 0 10 -2
10 -4z m-40 -31 c-7 -8 -17 -15 -22 -15 -11 0 14 29 26 30 5 0 3 -7 -4 -15z
m111 1 c12 6 12 5 1 -8 -10 -13 -10 -17 0 -22 7 -3 3 -4 -9 -2 -12 2 -30 -2
-40 -10 -17 -13 -17 -14 0 -8 10 4 17 1 17 -5 0 -8 5 -9 17 -3 11 7 21 5 31
-5 13 -12 12 -16 -4 -28 -10 -7 -22 -11 -27 -8 -5 3 0 11 10 19 11 8 13 13 6
14 -7 0 -22 -9 -33 -20 -24 -24 -42 -26 -38 -4 2 9 -8 23 -22 33 -13 9 -21 11
-16 4 12 -21 -8 -15 -27 7 -17 20 -16 20 8 16 15 -3 24 0 22 7 -1 7 8 11 24 9
15 -1 32 5 39 13 10 12 15 13 20 4 5 -7 13 -8 21 -3z m-207 -20 c-10 -8 -21
-12 -23 -10 -3 2 4 11 15 18 10 8 21 12 23 10 3 -2 -4 -11 -15 -18z m251 14
c-3 -5 -10 -10 -16 -10 -5 0 -9 5 -9 10 0 6 7 10 16 10 8 0 12 -4 9 -10z m14
-31 c-8 -5 -21 -9 -29 -9 -12 1 -11 4 4 15 10 8 23 12 29 8 5 -3 3 -9 -4 -14z
m-345 -32 c-2 -7 -14 -18 -25 -25 -17 -11 -20 -11 -13 0 21 34 49 52 38 25z
m202 -27 c0 -11 -3 -20 -7 -20 -10 0 -19 27 -12 34 12 11 19 6 19 -14z m-176
0 c0 -5 -2 -10 -4 -10 -3 0 -8 5 -11 10 -3 6 -1 10 4 10 6 0 11 -4 11 -10z
m70 -14 c0 -3 -4 -8 -10 -11 -5 -3 -10 -1 -10 4 0 6 5 11 10 11 6 0 10 -2 10
-4z m-120 -16 c0 -5 -4 -10 -10 -10 -5 0 -10 5 -10 10 0 6 5 10 10 10 6 0 10
-4 10 -10z m64 -22 c-3 -4 -11 -8 -19 -8 -7 0 -16 -6 -18 -12 -3 -7 -6 -8 -6
-3 -2 19 33 55 41 42 4 -6 4 -15 2 -19z m222 17 c14 -13 13 -15 -10 -15 -31 0
-35 -20 -5 -27 11 -3 18 -11 15 -19 -3 -8 0 -11 10 -7 10 4 12 0 8 -12 -4 -9
-7 -26 -8 -38 -1 -24 -26 -36 -26 -13 0 9 -6 16 -12 17 -7 0 -4 4 7 9 11 5 14
9 7 9 -7 1 -19 15 -26 33 -12 27 -12 35 1 55 18 27 20 28 39 8z m80 -17 c5 -8
2 -9 -11 -5 -9 4 -24 2 -31 -4 -9 -7 -14 -8 -14 -1 0 20 45 29 56 10z m264 2
c0 -5 -5 -10 -11 -10 -5 0 -7 5 -4 10 3 6 8 10 11 10 2 0 4 -4 4 -10z m-510
-20 c0 -16 -38 -32 -46 -19 -7 12 12 29 34 29 6 0 12 -4 12 -10z m430 -20 c5
-33 -1 -46 -22 -47 -19 -2 -20 0 -7 7 10 6 15 21 14 40 -2 30 11 30 15 0z
m-495 0 c3 -5 -1 -10 -10 -10 -9 0 -13 5 -10 10 3 6 8 10 10 10 2 0 7 -4 10
-10z m285 0 c0 -5 -4 -10 -10 -10 -5 0 -10 5 -10 10 0 6 5 10 10 10 6 0 10 -4
10 -10z m328 -32 c15 2 22 -2 22 -12 0 -18 -21 -21 -37 -5 -8 8 -13 8 -17 0
-4 -6 0 -11 8 -11 9 0 16 -5 16 -10 0 -6 11 -8 26 -4 20 5 25 3 22 -7 -3 -8
-11 -13 -17 -11 -6 1 -14 -5 -17 -13 -9 -22 -34 -18 -34 5 0 11 -5 20 -10 20
-6 0 -9 12 -6 28 2 15 5 36 6 47 2 17 3 16 9 -5 5 -18 13 -24 29 -22z m-521
26 c-3 -3 -12 -4 -19 -1 -8 3 -5 6 6 6 11 1 17 -2 13 -5z m263 -29 c0 -14 -4
-25 -9 -25 -5 0 -8 11 -7 25 1 33 16 33 16 0z m-65 5 c3 -5 1 -18 -4 -27 -6
-10 -11 -16 -11 -13 -8 38 -8 50 -1 50 6 0 13 -4 16 -10z m-100 -10 c-3 -5
-11 -10 -16 -10 -6 0 -7 5 -4 10 3 6 11 10 16 10 6 0 7 -4 4 -10z m-165 -15
c0 -2 -10 -10 -22 -16 -21 -11 -22 -11 -9 4 13 16 31 23 31 12z m365 -34 c-3
-6 -14 -11 -23 -11 -15 1 -15 2 2 15 21 16 32 13 21 -4z m165 -2 c0 -5 -4 -9
-8 -9 -5 0 -9 7 -9 15 0 8 4 12 9 9 4 -3 8 -9 8 -15z m-300 -7 c0 -5 -11 -14
-25 -20 -20 -9 -25 -9 -25 2 0 13 14 20 43 25 4 0 7 -3 7 -7z m-171 -36 c9 3
3 -2 -12 -11 -32 -19 -41 -16 -31 9 4 12 10 14 17 7 5 -5 17 -7 26 -5z m171 3
c0 -6 6 -9 13 -6 11 4 11 -2 3 -29 -6 -19 -14 -34 -17 -34 -10 0 -5 34 6 42 5
4 2 10 -8 14 -18 7 -23 24 -7 24 6 0 10 -5 10 -11z m-236 -14 c-6 -16 -24 -21
-24 -7 0 11 11 22 21 22 5 0 6 -7 3 -15z m646 0 c0 -8 -4 -15 -10 -15 -5 0
-10 7 -10 15 0 8 5 15 10 15 6 0 10 -7 10 -15z m-169 -41 c5 -6 4 -11 -4 -11
-6 0 -23 -3 -37 -7 l-25 -8 23 17 c13 9 21 23 18 30 -2 7 -2 16 2 20 4 4 9 -1
11 -12 2 -10 7 -23 12 -29z m119 32 c0 -3 -4 -8 -10 -11 -5 -3 -10 -1 -10 4 0
6 5 11 10 11 6 0 10 -2 10 -4z m-475 -16 c3 -5 -1 -10 -10 -10 -9 0 -13 5 -10
10 3 6 8 10 10 10 2 0 7 -4 10 -10z m555 -4 c0 -3 -4 -8 -10 -11 -5 -3 -10 -1
-10 4 0 6 5 11 10 11 6 0 10 -2 10 -4z m-130 -49 c0 -5 -6 -7 -12 -4 -7 2 -12
10 -10 17 2 8 -3 10 -14 6 -14 -6 -15 -4 -3 10 12 14 14 14 26 -2 7 -10 13
-22 13 -27z m155 33 c-3 -5 0 -10 9 -10 8 0 16 3 19 8 2 4 2 2 1 -5 -2 -7 1
-15 6 -18 6 -4 10 -13 10 -20 0 -20 -30 -7 -31 14 -1 14 -2 14 -6 -1 -5 -20
-12 -22 -33 -8 -13 8 -12 10 3 10 9 0 17 5 17 11 0 6 -8 8 -17 5 -15 -5 -15
-4 1 9 23 17 30 19 21 5z m-597 -30 c-7 -11 -16 -20 -20 -20 -5 0 -3 9 4 20 7
11 16 20 20 20 5 0 3 -9 -4 -20z m672 6 c0 -3 -4 -8 -10 -11 -5 -3 -10 -1 -10
4 0 6 5 11 10 11 6 0 10 -2 10 -4z m-213 -28 c-3 -8 -6 -5 -6 6 -1 11 2 17 5
13 3 -3 4 -12 1 -19z m68 12 c3 -5 -1 -10 -9 -10 -9 0 -16 -4 -16 -10 0 -5 9
-10 20 -10 11 0 20 -4 20 -10 0 -19 -39 -10 -45 10 -10 31 14 55 30 30z m-501
-24 c-6 -15 -24 -23 -24 -11 0 8 24 34 28 30 1 -1 0 -10 -4 -19z m1031 14 c-3
-5 -1 -10 4 -10 6 0 11 5 11 12 0 9 3 9 12 0 10 -10 10 -15 -1 -21 -8 -5 -11
-17 -7 -28 4 -12 1 -25 -9 -33 -13 -11 -15 -9 -15 11 0 22 -1 22 -13 4 -13
-17 -14 -16 -12 6 1 13 7 24 12 24 6 0 15 3 19 8 4 4 -3 7 -16 7 -19 0 -20 2
-10 15 14 17 35 21 25 5z m-50 -17 c-9 -23 -9 -31 3 -70 7 -20 7 -35 1 -38 -5
-4 -9 -15 -9 -25 0 -10 -5 -22 -12 -26 -8 -5 -9 -2 -5 9 4 11 1 17 -8 17 -22
0 -18 15 8 33 l22 15 -27 -2 c-14 0 -24 -4 -22 -7 2 -4 -3 -9 -11 -13 -22 -8
-18 10 7 34 12 11 18 20 12 21 -5 0 0 4 11 9 17 7 17 9 3 9 -10 1 -18 6 -18
12 0 5 5 7 10 4 6 -3 10 -1 10 4 0 6 -6 11 -12 12 -7 0 -4 4 7 9 31 13 38 12
30 -7z m-415 -3 c0 -5 -5 -10 -11 -10 -5 0 -7 5 -4 10 3 6 8 10 11 10 2 0 4
-4 4 -10z m-167 -7 c-7 -2 -21 -2 -30 0 -10 3 -4 5 12 5 17 0 24 -2 18 -5z
m-288 -13 c-3 -5 -11 -10 -16 -10 -6 0 -7 5 -4 10 3 6 11 10 16 10 6 0 7 -4 4
-10z m39 2 c-6 -4 -10 -15 -8 -26 2 -13 -1 -15 -8 -8 -13 13 -3 42 14 42 9 0
10 -3 2 -8z m766 -9 c0 -9 -3 -13 -7 -10 -3 4 -12 2 -20 -4 -7 -6 -13 -8 -13
-4 0 4 -7 2 -15 -5 -11 -9 -15 -9 -15 -1 0 9 48 37 68 41 1 0 2 -7 2 -17z
m-975 -3 c-3 -5 -12 -10 -18 -10 -7 0 -6 4 3 10 19 12 23 12 15 0z m509 -1
c-2 -4 3 -12 11 -19 7 -6 11 -18 8 -27 -5 -12 -7 -12 -14 -1 -5 7 -13 14 -19
14 -23 3 -24 6 -5 14 18 8 17 9 -7 9 -16 1 -28 5 -28 10 0 4 13 8 29 7 16 -1
27 -4 25 -7z m966 1 c0 -5 -4 -10 -10 -10 -5 0 -10 5 -10 10 0 6 5 10 10 10 6
0 10 -4 10 -10z m-903 -15 c0 -8 -4 -12 -9 -9 -5 3 -6 10 -3 15 9 13 12 11 12
-6z m43 -16 c0 -5 -6 -9 -14 -9 -8 0 -14 9 -13 19 1 15 4 17 14 9 7 -6 13 -14
13 -19z m552 12 c15 -18 15 -19 -1 -24 -12 -3 -17 3 -19 19 -2 29 -1 29 20 5z
m368 -1 c0 -5 -7 -7 -15 -4 -8 4 -12 10 -9 15 6 11 24 2 24 -11z m-1466 -11
c-6 -11 -24 -2 -24 11 0 5 7 7 15 4 8 -4 12 -10 9 -15z m41 -9 c3 -5 2 -10 -4
-10 -5 0 -13 5 -16 10 -3 6 -2 10 4 10 5 0 13 -4 16 -10z m672 -6 c14 6 15 4
6 -5 -14 -14 -67 -3 -58 12 5 7 11 6 21 -2 7 -6 22 -8 31 -5z m634 1 c0 -6
-11 -11 -23 -12 -15 -1 -17 0 -5 3 9 3 14 10 11 16 -4 6 -1 9 5 7 7 -3 12 -9
12 -14z m99 -17 c0 -19 -16 -5 -17 14 -2 18 0 20 7 8 5 -8 10 -18 10 -22z
m-1303 3 c0 -11 -7 -17 -14 -14 -9 4 -9 8 0 19 16 17 16 17 14 -5z m653 15 c0
-2 -7 -7 -16 -10 -8 -3 -12 -2 -9 4 6 10 25 14 25 6z m94 -11 c-4 -8 -14 -15
-23 -14 -10 0 -11 2 -3 6 6 2 10 9 6 14 -3 5 2 9 10 9 10 0 13 -6 10 -15z
m-814 -5 c0 -5 -2 -10 -4 -10 -3 0 -8 5 -11 10 -3 6 -1 10 4 10 6 0 11 -4 11
-10z m767 -12 c-3 -8 -6 -5 -6 6 -1 11 2 17 5 13 3 -3 4 -12 1 -19z m424 -18
c-20 -21 -25 -17 -17 15 5 20 9 23 19 13 11 -9 10 -15 -2 -28z m-831 14 c0 -2
-7 -4 -15 -4 -8 0 -15 4 -15 10 0 5 7 7 15 4 8 -4 15 -8 15 -10z m585 -2 c-3
-3 -11 0 -18 7 -9 10 -8 11 6 5 10 -3 15 -9 12 -12z m55 8 c0 -5 -4 -10 -10
-10 -5 0 -10 5 -10 10 0 6 5 10 10 10 6 0 10 -4 10 -10z m84 -5 c-4 -9 0 -15
10 -15 9 0 16 -8 17 -17 0 -11 3 -13 6 -5 7 17 23 5 23 -19 0 -11 -7 -19 -16
-19 -8 0 -12 5 -9 10 4 7 -2 9 -19 4 -21 -5 -25 -3 -20 10 4 11 1 16 -12 16
-16 0 -17 2 -4 10 13 9 13 10 0 10 -11 1 -10 4 4 15 25 19 27 19 20 0z m-574
1 c0 -7 -40 -14 -44 -7 -3 4 6 8 20 9 13 1 24 0 24 -2z m197 -10 c-2 -6 -12
-12 -23 -13 -10 -2 -13 0 -6 3 6 3 10 9 8 13 -3 4 2 8 10 8 8 0 13 -5 11 -11z
m533 4 c0 -5 -4 -10 -10 -10 -5 0 -10 5 -10 10 0 6 5 10 10 10 6 0 10 -4 10
-10z m-1310 -10 c0 -5 -2 -10 -4 -10 -3 0 -8 5 -11 10 -3 6 -1 10 4 10 6 0 11
-4 11 -10z m820 2 c0 -4 17 -7 38 -6 20 2 27 0 15 -2 -13 -3 -20 -11 -17 -19
3 -7 1 -16 -4 -19 -6 -3 -12 1 -16 9 -3 8 -12 15 -21 15 -8 0 -15 7 -15 15 0
8 5 15 10 15 6 0 10 -4 10 -8z m-220 -8 c0 -8 -19 -13 -24 -6 -3 5 1 9 9 9 8
0 15 -2 15 -3z m487 -11 c0 -9 -4 -10 -14 -2 -7 6 -13 12 -13 14 0 1 6 2 13 2
8 0 14 -6 14 -14z m303 -9 c0 -8 -4 -14 -10 -14 -5 0 -10 9 -10 21 0 11 5 17
10 14 6 -3 10 -13 10 -21z m-1260 12 c0 -3 -4 -8 -10 -11 -5 -3 -10 -1 -10 4
0 6 5 11 10 11 6 0 10 -2 10 -4z m545 -6 c3 -5 1 -10 -4 -10 -6 0 -11 5 -11
10 0 6 2 10 4 10 3 0 8 -4 11 -10z m380 -30 c-3 -6 -12 -10 -18 -10 -8 0 -8 3
2 9 9 6 10 11 2 15 -6 4 -8 12 -5 18 4 7 10 5 16 -6 5 -9 6 -21 3 -26z m294
19 c-16 -10 -23 -4 -14 10 3 6 11 8 17 5 6 -4 5 -9 -3 -15z m-339 -9 c0 -5 -2
-10 -4 -10 -3 0 -8 5 -11 10 -3 6 -1 10 4 10 6 0 11 -4 11 -10z m75 -10 c3 -5
1 -10 -4 -10 -6 0 -11 5 -11 10 0 6 2 10 4 10 3 0 8 -4 11 -10z"/>
<path d="M1613 2673 c9 -2 23 -2 30 0 6 3 -1 5 -18 5 -16 0 -22 -2 -12 -5z"/>
<path d="M1030 1024 c0 -8 5 -12 10 -9 6 4 8 11 5 16 -9 14 -15 11 -15 -7z"/>
<path d="M885 890 c-3 -5 1 -10 9 -10 8 0 18 5 21 10 3 6 -1 10 -9 10 -8 0
-18 -4 -21 -10z"/>
<path d="M850 880 c0 -5 5 -10 10 -10 6 0 10 5 10 10 0 6 -4 10 -10 10 -5 0
-10 -4 -10 -10z"/>
<path d="M890 720 c0 -5 5 -10 10 -10 6 0 10 5 10 10 0 6 -4 10 -10 10 -5 0
-10 -4 -10 -10z"/>
<path d="M1680 3160 c0 -19 3 -21 12 -12 9 9 9 15 0 24 -9 9 -12 7 -12 -12z"/>
<path d="M2348 2903 c-14 -2 -29 -11 -32 -20 -5 -13 -1 -14 25 -9 17 3 38 6
45 6 8 0 11 6 8 15 -4 8 -9 14 -13 14 -3 -1 -18 -4 -33 -6z"/>
<path d="M2491 2864 c0 -11 3 -14 6 -6 3 7 2 16 -1 19 -3 4 -6 -2 -5 -13z"/>
<path d="M2236 2815 c-54 -19 -66 -33 -42 -51 14 -10 23 -11 33 -3 9 9 14 7
19 -5 4 -11 19 -16 49 -16 40 0 73 19 58 33 -13 14 9 6 47 -15 31 -18 42 -20
51 -11 10 10 9 17 -6 33 -32 36 -150 55 -209 35z"/>
<path d="M2145 2410 c-8 -13 5 -13 25 0 13 8 13 10 -2 10 -9 0 -20 -4 -23 -10z"/>
<path d="M2910 1859 c0 -5 5 -7 10 -4 6 3 10 8 10 11 0 2 -4 4 -10 4 -5 0 -10
-5 -10 -11z"/>
<path d="M2990 1825 c0 -9 5 -15 11 -13 6 2 11 8 11 13 0 5 -5 11 -11 13 -6 2
-11 -4 -11 -13z"/>
<path d="M3055 1832 c-10 -10 7 -22 31 -22 31 0 27 23 -4 25 -12 1 -24 0 -27
-3z"/>
<path d="M3111 1774 c0 -11 3 -14 6 -6 3 7 2 16 -1 19 -3 4 -6 -2 -5 -13z"/>
<path d="M2930 1750 c0 -5 5 -10 11 -10 5 0 7 5 4 10 -3 6 -8 10 -11 10 -2 0
-4 -4 -4 -10z"/>
<path d="M3200 1740 c6 -11 15 -20 21 -20 6 0 6 7 -1 20 -6 11 -15 20 -21 20
-6 0 -6 -7 1 -20z"/>
<path d="M3295 1690 c-3 -5 1 -10 9 -10 9 0 16 5 16 10 0 6 -4 10 -9 10 -6 0
-13 -4 -16 -10z"/>
<path d="M3240 1566 c0 -9 5 -16 10 -16 6 0 10 4 10 9 0 6 -4 13 -10 16 -5 3
-10 -1 -10 -9z"/>
<path d="M2765 1540 c-4 -6 -4 -14 0 -18 4 -4 10 -1 13 7 4 11 6 11 14 0 8
-12 9 -12 6 0 -5 19 -24 25 -33 11z"/>
<path d="M3470 1537 c0 -10 8 -17 18 -17 9 0 13 4 7 8 -5 4 -13 11 -17 16 -5
5 -8 2 -8 -7z"/>
<path d="M3276 1524 c-4 -9 -3 -20 0 -23 4 -3 9 0 11 7 3 6 10 9 16 5 7 -4 6
1 -2 10 -17 21 -17 21 -25 1z"/>
<path d="M2750 1490 c0 -5 5 -10 11 -10 5 0 7 5 4 10 -3 6 -8 10 -11 10 -2 0
-4 -4 -4 -10z"/>
<path d="M3317 1480 c-3 -11 -1 -20 4 -20 5 0 9 2 9 4 0 2 3 11 6 20 3 9 2 16
-4 16 -5 0 -12 -9 -15 -20z"/>
<path d="M2787 1470 c7 -27 19 -34 27 -15 3 8 1 15 -5 15 -6 0 -7 5 -4 10 3 6
0 10 -8 10 -10 0 -13 -7 -10 -20z"/>
<path d="M3430 1460 c0 -5 5 -10 10 -10 6 0 10 5 10 10 0 6 -4 10 -10 10 -5 0
-10 -4 -10 -10z"/>
<path d="M2930 1444 c0 -8 5 -12 10 -9 6 4 8 11 5 16 -9 14 -15 11 -15 -7z"/>
<path d="M3470 1442 c0 -5 11 -14 25 -20 26 -12 33 -4 13 16 -14 14 -38 16
-38 4z"/>
<path d="M2712 1429 c2 -6 8 -10 13 -10 5 0 11 4 13 10 2 6 -4 11 -13 11 -9 0
-15 -5 -13 -11z"/>
<path d="M2850 1435 c0 -5 5 -17 10 -25 5 -8 10 -10 10 -5 0 6 -5 17 -10 25
-5 8 -10 11 -10 5z"/>
<path d="M3112 1420 c0 -14 2 -19 5 -12 2 6 2 18 0 25 -3 6 -5 1 -5 -13z"/>
<path d="M2971 1414 c0 -11 3 -14 6 -6 3 7 2 16 -1 19 -3 4 -6 -2 -5 -13z"/>
<path d="M2800 1374 c0 -14 4 -23 10 -19 6 3 10 15 10 26 0 10 -4 19 -10 19
-5 0 -10 -12 -10 -26z"/>
<path d="M3402 1368 c13 -40 28 -59 28 -36 0 9 -4 20 -10 23 -5 3 -10 15 -10
26 0 10 -4 19 -9 19 -6 0 -6 -13 1 -32z"/>
<path d="M3142 1371 c4 -13 18 -16 19 -4 0 4 -5 9 -11 12 -7 2 -11 -2 -8 -8z"/>
<path d="M2830 1360 c0 -5 5 -10 11 -10 5 0 7 5 4 10 -3 6 -8 10 -11 10 -2 0
-4 -4 -4 -10z"/>
<path d="M3491 1344 c0 -11 3 -14 6 -6 3 7 2 16 -1 19 -3 4 -6 -2 -5 -13z"/>
<path d="M2676 1341 c-4 -7 -5 -15 -2 -18 9 -9 19 4 14 18 -4 11 -6 11 -12 0z"/>
<path d="M2870 1334 c0 -8 5 -12 10 -9 6 3 10 10 10 16 0 5 -4 9 -10 9 -5 0
-10 -7 -10 -16z"/>
<path d="M3025 1340 c3 -5 8 -10 11 -10 2 0 4 5 4 10 0 6 -5 10 -11 10 -5 0
-7 -4 -4 -10z"/>
<path d="M3261 1334 c0 -11 3 -14 6 -6 3 7 2 16 -1 19 -3 4 -6 -2 -5 -13z"/>
<path d="M3520 1340 c0 -5 5 -10 10 -10 6 0 10 5 10 10 0 6 -4 10 -10 10 -5 0
-10 -4 -10 -10z"/>
<path d="M2775 1300 c3 -5 8 -10 11 -10 2 0 4 5 4 10 0 6 -5 10 -11 10 -5 0
-7 -4 -4 -10z"/>
<path d="M3437 1293 c-12 -11 -7 -19 12 -19 11 0 17 5 14 13 -6 14 -16 17 -26
6z"/>
<path d="M2866 1275 c-3 -9 0 -15 9 -15 16 0 20 16 6 24 -5 3 -11 -1 -15 -9z"/>
<path d="M3161 1254 c-12 -19 -21 -41 -21 -47 0 -13 32 36 43 66 10 28 1 20
-22 -19z"/>
<path d="M2770 1259 c0 -5 5 -7 10 -4 6 3 10 8 10 11 0 2 -4 4 -10 4 -5 0 -10
-5 -10 -11z"/>
<path d="M3410 1243 c0 -17 5 -35 10 -38 13 -8 13 35 0 55 -7 11 -10 7 -10
-17z"/>
<path d="M3044 1242 c-6 -4 -13 -15 -17 -24 -4 -12 -1 -16 14 -15 13 1 19 9
19 24 0 25 0 26 -16 15z"/>
<path d="M1215 1210 c-10 -17 12 -37 25 -24 8 8 6 15 -4 23 -10 9 -16 9 -21 1z"/>
<path d="M2640 1209 c0 -5 5 -7 10 -4 6 3 10 8 10 11 0 2 -4 4 -10 4 -5 0 -10
-5 -10 -11z"/>
<path d="M3450 1204 c0 -8 5 -12 10 -9 6 3 10 10 10 16 0 5 -4 9 -10 9 -5 0
-10 -7 -10 -16z"/>
<path d="M2748 1181 c-6 -38 4 -47 27 -25 12 13 13 19 5 24 -7 4 -16 13 -20
20 -5 7 -9 0 -12 -19z"/>
<path d="M2902 1190 c0 -14 2 -19 5 -12 2 6 2 18 0 25 -3 6 -5 1 -5 -13z"/>
<path d="M2445 1188 c-4 -10 -4 -26 0 -35 8 -17 8 -17 12 0 3 9 3 25 0 35 -4
16 -4 16 -12 0z"/>
<path d="M3091 1181 c-8 -5 -9 -11 -3 -15 5 -3 12 1 16 9 6 17 6 18 -13 6z"/>
<path d="M3442 1155 c0 -16 2 -22 5 -12 2 9 2 23 0 30 -3 6 -5 -1 -5 -18z"/>
<path d="M3500 1156 c0 -13 -6 -27 -12 -29 -7 -3 -2 -6 12 -6 25 -1 25 -1 27
-107 1 -82 -1 -104 -10 -95 -7 7 -12 28 -12 48 0 22 -5 38 -14 41 -9 3 -11 -1
-7 -14 3 -11 1 -26 -4 -34 -9 -13 -12 -12 -25 4 -8 11 -15 14 -15 7 0 -6 11
-23 25 -37 29 -29 31 -40 10 -48 -17 -6 -21 -46 -5 -46 6 0 10 10 10 23 0 18
2 19 10 7 15 -22 12 -37 -7 -44 -10 -3 -24 -9 -32 -12 -10 -5 -12 -2 -8 8 3 9
1 20 -5 26 -7 7 -7 20 1 42 7 21 7 38 1 49 -8 14 -9 13 -9 -4 0 -53 -17 -139
-29 -143 -8 -2 -10 2 -5 14 4 11 2 15 -6 13 -13 -5 -14 -10 -4 -46 3 -13 9
-20 14 -17 5 3 17 -3 28 -13 13 -13 17 -27 14 -50 -7 -45 -29 -43 -27 2 1 24
-2 35 -12 35 -8 0 -14 -4 -14 -10 0 -5 5 -10 11 -10 8 0 7 -5 -1 -15 -11 -13
-10 -22 5 -49 18 -33 18 -34 -7 -87 -15 -30 -34 -63 -43 -74 -16 -20 -16 -20
-10 5 11 39 12 90 3 90 -4 0 -8 7 -8 15 0 8 6 15 14 15 8 0 16 7 20 15 3 8 0
15 -6 15 -6 0 -8 11 -5 30 4 16 4 37 1 45 -7 18 -40 20 -50 3 -4 -7 -3 -8 4
-4 7 4 12 1 12 -8 0 -18 -17 -21 -39 -7 -8 5 -10 14 -6 21 5 8 3 11 -5 8 -7
-2 -14 -18 -15 -36 -2 -27 0 -31 11 -21 11 9 14 6 14 -16 0 -23 2 -25 15 -15
18 15 40 3 26 -14 -6 -7 -8 -29 -4 -51 l6 -38 -41 6 c-35 6 -42 4 -47 -12 -7
-22 3 -70 18 -89 8 -10 13 -7 23 15 11 26 12 27 20 8 4 -11 11 -23 16 -26 5
-3 -1 -14 -12 -24 -17 -16 -23 -17 -30 -6 -6 10 -10 8 -15 -10 -4 -13 -12 -30
-18 -38 -30 -37 -48 -122 -27 -129 14 -5 13 -23 -2 -19 -7 1 -21 13 -30 27
-14 19 -18 21 -18 8 0 -11 -5 -15 -14 -12 -10 4 -14 18 -12 47 2 23 0 50 -3
60 -7 18 -8 18 -21 2 -13 -16 -15 -16 -21 2 -7 17 -8 17 -8 -2 -1 -11 8 -26
19 -33 25 -15 25 -33 0 -63 -21 -26 -26 -20 -9 14 10 22 10 22 -10 0 -10 -13
-24 -23 -30 -23 -5 0 -15 -8 -20 -18 -9 -15 -10 -14 -11 8 -1 23 -2 24 -14 8
-15 -20 -52 -24 -58 -6 -5 15 -68 -31 -68 -50 0 -15 40 -7 52 12 5 6 8 7 8 1
0 -5 5 -3 10 5 8 13 10 12 10 -2 0 -10 5 -18 10 -18 16 0 12 -30 -5 -36 -8 -4
-15 -12 -15 -19 0 -16 -38 -60 -46 -52 -4 3 1 13 10 22 17 18 19 29 7 60 -8
19 -8 19 -19 -2 -16 -30 -15 -38 3 -23 23 19 17 -2 -10 -35 -20 -24 -27 -27
-37 -17 -11 11 -9 12 6 6 15 -6 17 -4 10 7 -11 18 -12 39 -2 61 5 9 4 19 -1
22 -5 4 -12 0 -15 -6 -4 -7 -4 3 -2 22 4 30 3 32 -6 13 -9 -18 -48 -29 -48
-13 0 11 18 32 26 30 5 -1 10 3 12 9 2 6 -3 11 -12 11 -10 0 -16 9 -16 24 0
35 -27 40 -58 11 -15 -14 -32 -25 -39 -25 -7 0 -13 -7 -13 -16 0 -9 5 -12 12
-8 8 5 9 2 3 -12 -7 -17 -12 -43 -14 -81 -1 -7 -10 -13 -21 -13 -11 0 -20 -5
-20 -11 0 -6 -7 -3 -16 5 -19 19 -34 21 -34 3 0 -16 -58 -39 -66 -26 -3 5 6
14 20 21 31 14 33 28 5 51 -16 15 -18 21 -9 33 19 22 -5 17 -25 -6 -23 -25
-28 -51 -10 -48 8 2 14 0 14 -4 2 -24 -1 -29 -16 -26 -12 2 -19 -5 -21 -21 -2
-13 -12 -39 -23 -57 l-19 -34 30 0 c17 0 34 7 40 18 11 16 11 16 6 -1 -5 -15
2 -17 54 -16 33 1 60 6 60 10 0 5 6 9 14 9 8 0 17 10 19 23 3 16 5 14 6 -10
l1 -32 137 0 c131 -1 139 0 156 21 l18 23 -6 -22 c-6 -21 -3 -23 39 -23 25 0
46 2 46 5 0 11 -35 45 -47 45 -17 0 -17 15 1 29 16 14 46 4 46 -15 0 -8 5 -14
11 -14 7 0 9 -10 5 -24 l-6 -25 450 -1 450 -1 0 127 c0 121 -1 129 -29 178
-16 28 -31 64 -35 79 -12 51 -59 143 -63 125 -6 -24 -23 -23 -23 2 0 11 5 20
10 20 13 0 3 63 -15 100 -7 14 -23 64 -36 113 -13 48 -27 87 -31 87 -5 0 -8
-4 -8 -10 0 -5 -10 -18 -22 -30 -16 -15 -24 -17 -29 -8 -5 8 -11 3 -18 -15 -6
-15 -18 -30 -26 -34 -9 -3 -14 -12 -11 -20 3 -8 1 -24 -5 -35 -9 -16 -7 -24
10 -42 23 -24 27 -51 11 -61 -7 -4 -9 2 -5 18 5 20 0 28 -30 46 -27 15 -35 26
-31 38 4 9 2 20 -5 24 -7 4 -12 39 -14 83 -1 42 -4 79 -7 82 -3 2 -17 -1 -32
-7 -20 -9 -26 -19 -26 -44 0 -17 5 -36 11 -42 8 -8 8 -13 -1 -18 -17 -10 -21
-2 -22 47 -1 58 10 91 28 84 19 -7 30 40 14 59 -10 12 -10 18 0 30 10 11 9 18
-4 30 -18 19 -21 41 -6 50 7 4 6 13 -1 27 -6 11 -9 33 -7 48 3 19 -1 31 -14
39 -25 16 -28 14 -28 -13z m-14 -422 c-9 -22 -26 -7 -26 22 0 14 4 22 10 19 6
-3 11 2 11 12 1 10 4 5 6 -10 3 -16 2 -35 -1 -43z m284 -6 c0 -34 -15 -25 -17
10 -1 26 1 32 7 22 6 -8 10 -23 10 -32z m-30 6 c0 -19 -31 -74 -42 -74 -13 0
-9 27 10 59 19 34 32 40 32 15z m-398 -56 c-8 -8 -9 -4 -5 13 4 13 8 18 11 10
2 -7 -1 -18 -6 -23z m465 -22 c-3 -18 -1 -38 5 -44 10 -10 2 -52 -10 -52 -8 0
-42 57 -42 70 0 24 22 60 36 60 13 0 16 -7 11 -34z m-57 9 c0 -8 -4 -15 -10
-15 -5 0 -10 7 -10 15 0 8 5 15 10 15 6 0 10 -7 10 -15z m-279 -36 c-5 -13
-10 -19 -10 -12 -1 15 10 45 15 40 3 -2 0 -15 -5 -28z m179 -43 c0 -30 -17
-43 -23 -19 -3 10 -5 5 -6 -12 -1 -18 -9 -35 -21 -43 -11 -7 -20 -8 -20 -3 0
6 5 13 10 16 6 3 10 17 10 30 0 36 10 55 31 55 13 0 19 -7 19 -24z m90 3 c0
-5 -4 -9 -10 -9 -5 0 -10 7 -10 16 0 8 5 12 10 9 6 -3 10 -10 10 -16z m-252
-26 c-4 -22 -22 -20 -26 1 -2 10 3 16 13 16 10 0 15 -7 13 -17z m280 -35 c-4
-27 -28 -36 -28 -10 0 20 8 32 22 32 5 0 8 -10 6 -22z m-455 -11 c-2 -4 -3
-11 -3 -16 0 -5 -11 -8 -25 -8 -27 0 -40 11 -30 26 6 11 61 9 58 -2z m120 -45
c5 -7 7 -15 3 -19 -9 -10 -15 0 -20 33 -2 16 -1 22 1 14 3 -8 10 -21 16 -28z
m228 18 c12 0 12 -47 0 -55 -16 -9 -33 34 -25 63 5 21 8 23 11 10 3 -10 9 -18
14 -18z m49 20 c0 -5 -2 -10 -4 -10 -3 0 -8 5 -11 10 -3 6 -1 10 4 10 6 0 11
-4 11 -10z m-330 -57 c0 -22 -2 -25 -10 -13 -13 20 -13 40 0 40 6 0 10 -12 10
-27z m346 -81 c-9 -9 -18 -13 -21 -10 -3 3 1 13 10 22 9 9 12 16 7 16 -13 0
-24 29 -15 43 4 7 12 -2 21 -22 11 -30 11 -36 -2 -49z m-316 36 c0 -5 -4 -8
-10 -8 -5 0 -10 10 -10 23 0 18 2 19 10 7 5 -8 10 -18 10 -22z m27 0 c-3 -8
-6 -5 -6 6 -1 11 2 17 5 13 3 -3 4 -12 1 -19z m444 -74 c6 -7 3 -16 -8 -25
-15 -12 -16 -12 -10 4 4 10 3 27 -3 36 -5 10 -6 22 -2 26 4 4 9 -1 11 -12 2
-10 7 -23 12 -29z m-274 4 c-3 -7 -5 -2 -5 12 0 14 2 19 5 13 2 -7 2 -19 0
-25z m-287 -15 c0 -5 -4 -15 -10 -23 -11 -18 -25 -7 -17 15 6 15 27 21 27 8z
m430 3 c0 -3 -4 -8 -10 -11 -5 -3 -10 -1 -10 4 0 6 5 11 10 11 6 0 10 -2 10
-4z m-948 -83 c-3 -16 -7 -22 -10 -15 -4 13 4 42 11 42 2 0 2 -12 -1 -27z
m1108 4 c0 -8 -9 -22 -20 -32 -22 -20 -27 -6 -8 25 15 23 28 26 28 7z m-770
-31 c0 -14 -10 -30 -25 -40 -24 -16 -25 -16 -25 6 0 21 -1 21 -14 3 -8 -11
-12 -25 -9 -32 5 -13 -35 -35 -49 -27 -9 6 21 64 33 64 5 0 13 10 17 21 8 20
9 20 25 4 16 -15 17 -15 17 4 0 12 6 21 15 21 9 0 15 -9 15 -24z m200 10 c0
-8 -4 -18 -10 -21 -5 -3 -10 3 -10 14 0 12 5 21 10 21 6 0 10 -6 10 -14z
m-333 -48 c-3 -7 -5 -2 -5 12 0 14 2 19 5 13 2 -7 2 -19 0 -25z m244 -5 c-12
-20 -14 -14 -5 12 4 9 9 14 11 11 3 -2 0 -13 -6 -23z m-480 -17 c8 4 9 3 5 -4
-4 -7 -13 -12 -20 -12 -7 0 -17 -12 -23 -27 -10 -28 -10 -28 -8 7 3 52 4 53
20 40 8 -6 20 -8 26 -4z m49 -6 c0 -5 -5 -10 -11 -10 -5 0 -7 5 -4 10 3 6 8
10 11 10 2 0 4 -4 4 -10z m367 -12 c-3 -8 -6 -5 -6 6 -1 11 2 17 5 13 3 -3 4
-12 1 -19z m-411 -42 c-22 -90 -23 -91 -31 -72 -5 12 -2 29 9 47 15 25 15 28
1 23 -8 -3 -15 -2 -15 3 0 14 8 20 26 20 11 0 14 -7 10 -21z m-66 -16 c0 -5
-4 -10 -9 -10 -6 0 -13 5 -16 10 -3 6 1 10 9 10 9 0 16 -4 16 -10z m291 -5 c5
4 6 -1 3 -9 -5 -12 -9 -13 -19 -3 -7 7 -10 16 -7 22 3 5 7 4 10 -3 2 -7 8 -10
13 -7z m-371 -25 c0 -16 -22 -23 -31 -9 -16 26 -11 41 11 29 11 -6 20 -15 20
-20z m-104 -18 c-23 -23 -31 -8 -9 17 10 13 19 17 22 10 2 -6 -4 -18 -13 -27z
m620 1 c-10 -10 -19 5 -10 18 6 11 8 11 12 0 2 -7 1 -15 -2 -18z m-466 7 c0
-5 -7 -7 -15 -4 -8 4 -15 8 -15 10 0 2 7 4 15 4 8 0 15 -4 15 -10z"/>
<path d="M1190 1159 c0 -5 5 -7 10 -4 6 3 10 8 10 11 0 2 -4 4 -10 4 -5 0 -10
-5 -10 -11z"/>
<path d="M1218 1147 c-4 -21 -1 -23 21 -18 18 3 21 6 9 9 -10 2 -15 9 -11 18
3 8 1 14 -5 14 -5 0 -12 -10 -14 -23z"/>
<path d="M2836 1130 c-10 -22 -15 -46 -13 -53 3 -7 6 -5 6 6 1 9 5 17 10 17 8
0 25 60 18 66 -2 2 -11 -14 -21 -36z"/>
<path d="M2953 1153 c-7 -2 -13 -12 -12 -21 0 -11 2 -12 6 -4 2 6 9 10 14 6 5
-3 9 2 9 10 0 9 -1 16 -2 15 -2 0 -9 -3 -15 -6z"/>
<path d="M3280 1145 c0 -8 2 -15 4 -15 2 0 6 7 10 15 3 8 1 15 -4 15 -6 0 -10
-7 -10 -15z"/>
<path d="M3371 1134 c0 -11 3 -14 6 -6 3 7 2 16 -1 19 -3 4 -6 -2 -5 -13z"/>
<path d="M1506 1125 c4 -8 10 -15 15 -15 5 0 9 7 9 15 0 8 -7 15 -15 15 -9 0
-12 -6 -9 -15z"/>
<path d="M1320 1127 c0 -2 8 -13 18 -24 19 -23 46 -17 48 10 1 13 -6 17 -32
17 -19 0 -34 -2 -34 -3z"/>
<path d="M2586 1113 c-8 -21 -1 -27 17 -16 12 6 13 10 2 20 -10 10 -15 9 -19
-4z"/>
<path d="M3075 1120 c-3 -6 1 -7 9 -4 18 7 21 14 7 14 -6 0 -13 -4 -16 -10z"/>
<path d="M3307 1109 c-5 -17 -3 -18 10 -8 12 10 16 10 23 -2 7 -10 9 -8 7 9
-2 28 -33 30 -40 1z"/>
<path d="M3450 1110 c0 -5 5 -10 10 -10 6 0 10 5 10 10 0 6 -4 10 -10 10 -5 0
-10 -4 -10 -10z"/>
<path d="M1222 1080 c-1 -31 11 -39 25 -17 16 25 13 47 -6 47 -13 0 -18 -8
-19 -30z"/>
<path d="M1406 1084 c-4 -15 -5 -29 -2 -31 9 -9 26 8 26 27 0 30 -17 32 -24 4z"/>
<path d="M1290 1090 c0 -5 8 -10 18 -11 10 0 12 -3 5 -6 -7 -2 -13 -11 -13
-19 0 -9 -5 -12 -12 -8 -7 5 -8 3 -3 -5 10 -17 49 25 41 45 -6 16 -36 19 -36
4z"/>
<path d="M3390 1080 c0 -11 4 -20 9 -20 5 0 7 9 4 20 -3 11 -7 20 -9 20 -2 0
-4 -9 -4 -20z"/>
<path d="M3475 1090 c-6 -10 23 -75 31 -67 3 3 2 21 -1 41 -7 35 -18 45 -30
26z"/>
<path d="M1607 1083 c-14 -13 -6 -23 18 -23 28 0 34 15 9 24 -19 7 -19 7 -27
-1z"/>
<path d="M1663 1070 c4 -15 0 -20 -14 -20 -24 0 -24 -5 1 -30 25 -25 52 -27
43 -3 -5 12 -2 15 9 10 11 -4 18 1 21 14 4 13 0 19 -13 19 -10 0 -20 7 -24 15
-8 23 -29 18 -23 -5z"/>
<path d="M1700 1086 c0 -2 7 -7 16 -10 8 -3 12 -2 9 4 -6 10 -25 14 -25 6z"/>
<path d="M2850 1078 c0 -4 4 -8 9 -8 5 0 16 -3 25 -6 9 -3 16 -1 16 6 0 6 -4
8 -10 5 -5 -3 -10 -2 -10 3 0 5 -7 9 -15 9 -8 0 -15 -4 -15 -9z"/>
<path d="M1443 1064 c-3 -9 -9 -30 -13 -48 -4 -17 -12 -30 -18 -28 -7 1 -12
-5 -12 -14 0 -13 5 -12 29 5 23 17 28 26 25 53 -3 21 -1 28 5 19 6 -9 11 -10
15 -2 8 13 -1 31 -15 31 -5 0 -12 -7 -16 -16z"/>
<path d="M3196 1063 c-6 -14 -5 -15 5 -6 7 7 10 15 7 18 -3 3 -9 -2 -12 -12z"/>
<path d="M1510 1062 c0 -7 -6 -12 -14 -12 -7 0 -16 -11 -18 -25 -6 -28 7 -35
14 -7 3 11 16 18 34 20 30 2 52 17 41 28 -4 4 -13 2 -20 -4 -10 -9 -17 -8 -25
0 -9 9 -12 9 -12 0z"/>
<path d="M1925 1050 c-3 -5 -1 -10 4 -10 6 0 11 5 11 10 0 6 -2 10 -4 10 -3 0
-8 -4 -11 -10z"/>
<path d="M2947 1053 c-4 -3 -7 -11 -7 -17 0 -6 5 -5 12 2 6 6 9 14 7 17 -3 3
-9 2 -12 -2z"/>
<path d="M3005 1050 c-3 -5 -1 -10 4 -10 6 0 11 5 11 10 0 6 -2 10 -4 10 -3 0
-8 -4 -11 -10z"/>
<path d="M3590 1050 c0 -5 5 -10 10 -10 6 0 10 5 10 10 0 6 -4 10 -10 10 -5 0
-10 -4 -10 -10z"/>
<path d="M1320 1027 c0 -14 7 -27 15 -31 8 -3 15 -1 15 4 0 6 -4 10 -10 10 -5
0 -7 6 -4 14 3 8 1 17 -5 21 -7 4 -11 -3 -11 -18z"/>
<path d="M3121 1034 c0 -11 3 -14 6 -6 3 7 2 16 -1 19 -3 4 -6 -2 -5 -13z"/>
<path d="M2676 1032 c-2 -4 -1 -14 5 -22 7 -12 9 -10 9 8 0 23 -5 28 -14 14z"/>
<path d="M2742 1031 c-8 -4 -12 -18 -10 -31 3 -20 4 -20 15 9 6 17 11 31 10
31 -1 0 -8 -4 -15 -9z"/>
<path d="M3210 980 c0 -29 3 -51 6 -47 8 7 7 87 0 95 -3 3 -6 -19 -6 -48z"/>
<path d="M1286 1003 c-4 -9 -2 -21 4 -27 7 -7 10 -7 10 1 0 6 3 18 6 27 3 9 2
16 -4 16 -5 0 -13 -8 -16 -17z"/>
<path d="M3430 1010 c-9 -6 -10 -10 -3 -10 6 0 15 5 18 10 8 12 4 12 -15 0z"/>
<path d="M3065 1000 c3 -5 10 -10 16 -10 5 0 9 5 9 10 0 6 -7 10 -16 10 -8 0
-12 -4 -9 -10z"/>
<path d="M1193 983 c-21 -8 -15 -22 7 -16 11 3 20 9 20 14 0 10 -8 10 -27 2z"/>
<path d="M1468 978 c-8 -23 4 -58 21 -59 24 -2 24 -2 49 6 21 6 23 4 17 -14
-4 -13 -2 -21 5 -21 7 0 10 -7 6 -15 -5 -15 10 -20 43 -16 7 2 10 -2 6 -8 -3
-6 1 -11 9 -11 9 0 16 -7 16 -15 0 -8 7 -15 15 -15 8 0 15 3 15 6 0 11 -65 64
-78 64 -8 0 -12 5 -10 11 2 6 6 9 9 7 3 -2 13 3 22 11 11 9 17 10 17 2 0 -6
-4 -11 -10 -11 -5 0 -10 -5 -10 -11 0 -6 7 -9 15 -5 9 3 15 0 15 -9 0 -21 20
-19 20 3 1 15 2 15 15 -2 11 -14 15 -16 15 -5 1 9 5 7 13 -6 14 -23 53 -35 44
-13 -3 7 -8 21 -12 31 -5 12 -2 17 9 17 9 0 22 16 31 36 19 46 19 47 -5 41
-11 -3 -22 -2 -25 3 -2 4 -16 5 -30 2 -17 -3 -25 -11 -25 -26 1 -18 2 -19 13
-6 12 16 67 22 67 8 0 -5 -7 -8 -15 -8 -9 0 -15 -9 -15 -22 0 -17 -3 -19 -12
-10 -19 19 -27 14 -20 -10 5 -21 4 -21 -11 -9 -9 7 -26 11 -37 8 -18 -5 -25 3
-21 26 3 17 -35 5 -48 -15 l-14 -22 -8 22 c-5 12 -4 33 1 47 8 21 7 25 -9 25
-15 0 -18 -5 -13 -22 5 -20 3 -21 -10 -10 -9 7 -23 10 -32 6 -11 -4 -16 -1
-16 10 0 19 -16 22 -22 4z"/>
<path d="M1826 975 c-3 -8 -1 -15 5 -15 6 0 7 -5 3 -12 -5 -7 -3 -8 5 -4 7 5
10 14 7 21 -3 8 0 16 7 19 7 2 5 5 -4 5 -9 1 -19 -6 -23 -14z"/>
<path d="M3101 974 c0 -11 3 -14 6 -6 3 7 2 16 -1 19 -3 4 -6 -2 -5 -13z"/>
<path d="M3265 980 c4 -6 11 -8 16 -5 14 9 11 15 -7 15 -8 0 -12 -5 -9 -10z"/>
<path d="M1312 950 c-1 -30 4 -31 35 -7 10 7 9 12 -2 23 -21 22 -32 17 -33
-16z"/>
<path d="M1595 970 c-3 -5 3 -10 15 -10 12 0 18 5 15 10 -3 6 -10 10 -15 10
-5 0 -12 -4 -15 -10z"/>
<path d="M3130 970 c0 -5 5 -10 11 -10 5 0 7 5 4 10 -3 6 -8 10 -11 10 -2 0
-4 -4 -4 -10z"/>
<path d="M1140 965 c0 -5 5 -17 10 -25 5 -8 10 -10 10 -5 0 6 -5 17 -10 25 -5
8 -10 11 -10 5z"/>
<path d="M1203 946 c3 -8 1 -17 -6 -19 -7 -2 -9 -8 -5 -12 4 -4 14 -2 22 4 12
10 16 8 21 -8 6 -19 7 -19 24 -2 24 24 32 48 16 48 -7 0 -11 -7 -8 -16 4 -13
2 -13 -10 2 -18 21 -62 24 -54 3z"/>
<path d="M2046 943 c-6 -14 -5 -15 5 -6 7 7 10 15 7 18 -3 3 -9 -2 -12 -12z"/>
<path d="M2755 950 c-3 -5 -1 -10 4 -10 6 0 11 -8 11 -17 0 -15 2 -16 10 -3 5
8 10 21 10 28 0 14 -26 16 -35 2z"/>
<path d="M3377 947 c-11 -29 -9 -43 4 -30 6 6 9 19 7 29 -3 18 -4 18 -11 1z"/>
<path d="M1103 931 c2 -24 31 -38 43 -20 3 5 2 9 -3 8 -20 -4 -32 2 -37 19 -3
10 -4 8 -3 -7z"/>
<path d="M1893 943 c-7 -2 -13 -11 -13 -19 0 -8 -9 -14 -20 -14 -11 0 -20 -6
-20 -14 0 -8 -6 -16 -12 -19 -7 -2 -10 -8 -6 -12 4 -4 14 -2 23 5 10 8 15 9
15 1 0 -6 8 -3 18 7 10 9 17 19 15 21 -2 3 4 15 12 28 15 23 12 26 -12 16z"/>
<path d="M2940 914 c-7 -22 -19 -44 -27 -51 -13 -10 -13 -14 -1 -32 14 -19 14
-19 26 0 8 13 9 19 1 19 -13 0 -2 39 17 60 8 9 10 21 5 29 -6 9 -12 2 -21 -25z"/>
<path d="M3140 940 c0 -5 5 -10 10 -10 6 0 10 5 10 10 0 6 -4 10 -10 10 -5 0
-10 -4 -10 -10z"/>
<path d="M3630 926 c0 -12 6 -31 14 -41 13 -18 14 -17 30 7 21 32 12 56 -20
56 -18 0 -24 -6 -24 -22z"/>
<path d="M1417 925 c3 -8 9 -12 14 -9 12 7 11 11 -5 17 -10 4 -13 1 -9 -8z"/>
<path d="M2600 929 c0 -5 5 -7 10 -4 6 3 10 8 10 11 0 2 -4 4 -10 4 -5 0 -10
-5 -10 -11z"/>
<path d="M3251 924 c0 -11 3 -14 6 -6 3 7 2 16 -1 19 -3 4 -6 -2 -5 -13z"/>
<path d="M1345 920 c-3 -5 -2 -10 4 -10 5 0 13 5 16 10 3 6 2 10 -4 10 -5 0
-13 -4 -16 -10z"/>
<path d="M1391 914 c0 -11 3 -14 6 -6 3 7 2 16 -1 19 -3 4 -6 -2 -5 -13z"/>
<path d="M1445 910 c-3 -5 1 -10 10 -10 9 0 13 5 10 10 -3 6 -8 10 -10 10 -2
0 -7 -4 -10 -10z"/>
<path d="M3036 905 c-9 -26 -7 -32 5 -12 6 10 9 21 6 23 -2 3 -7 -2 -11 -11z"/>
<path d="M3086 905 c4 -8 7 -15 9 -15 2 0 5 7 9 15 3 9 0 15 -9 15 -9 0 -12
-6 -9 -15z"/>
<path d="M1216 898 c-4 -9 -5 -22 -1 -27 3 -6 0 -9 -7 -6 -8 3 -13 -3 -13 -18
0 -20 3 -22 18 -13 9 6 17 14 17 18 0 5 7 8 16 8 12 0 14 -10 10 -62 -5 -60
-4 -62 10 -36 8 16 20 25 28 22 8 -3 17 0 21 5 3 6 11 9 16 6 5 -4 9 1 9 10 0
11 -5 15 -15 11 -8 -3 -15 0 -15 7 0 20 -47 58 -63 51 -11 -4 -17 2 -19 18 -4
19 -6 20 -12 6z"/>
<path d="M2212 890 c-10 -17 -10 -23 3 -36 8 -9 15 -19 15 -24 0 -4 7 -11 16
-14 13 -5 15 1 13 37 -3 37 -12 56 -29 57 -3 0 -11 -9 -18 -20z"/>
<path d="M3290 888 c0 -9 5 -20 10 -23 15 -9 12 -42 -6 -76 -21 -42 -13 -45
22 -7 16 17 24 28 18 25 -7 -4 -13 8 -17 34 -6 42 -27 79 -27 47z"/>
<path d="M3717 894 c-4 -4 -7 -26 -6 -48 0 -23 3 -35 6 -28 2 6 11 12 19 12
11 0 13 7 8 28 -8 32 -18 45 -27 36z"/>
<path d="M1385 881 c-3 -6 -5 -11 -3 -12 36 -8 49 -7 46 3 -6 17 -34 22 -43 9z"/>
<path d="M2110 880 c-13 -8 -12 -10 3 -10 9 0 17 5 17 10 0 12 -1 12 -20 0z"/>
<path d="M2635 880 c-3 -5 -1 -10 4 -10 6 0 11 5 11 10 0 6 -2 10 -4 10 -3 0
-8 -4 -11 -10z"/>
<path d="M2686 875 c4 -8 8 -15 10 -15 2 0 4 7 4 15 0 8 -4 15 -10 15 -5 0 -7
-7 -4 -15z"/>
<path d="M3125 880 c3 -5 10 -10 16 -10 5 0 9 5 9 10 0 6 -7 10 -16 10 -8 0
-12 -4 -9 -10z"/>
<path d="M3175 860 c-18 -34 -18 -40 -5 -40 6 0 10 7 10 15 0 8 4 15 9 15 5 0
11 9 14 20 8 30 -10 24 -28 -10z"/>
<path d="M3250 875 c-13 -16 -24 -75 -13 -75 16 0 34 34 31 62 -3 29 -4 30
-18 13z"/>
<path d="M3097 866 c-4 -10 -5 -21 -2 -24 9 -9 17 6 13 25 -3 17 -4 17 -11 -1z"/>
<path d="M1480 859 c0 -6 6 -17 14 -25 11 -10 15 -11 19 -1 2 6 -2 17 -9 24
-15 16 -24 16 -24 2z"/>
<path d="M3051 860 c-9 -58 -8 -83 1 -67 5 10 7 32 5 50 -2 17 -5 25 -6 17z"/>
<path d="M1147 853 c-11 -10 -8 -33 4 -33 5 0 7 5 4 10 -3 6 -1 10 4 10 6 0
11 5 11 10 0 11 -13 13 -23 3z"/>
<path d="M2830 850 c0 -5 5 -10 10 -10 6 0 10 5 10 10 0 6 -4 10 -10 10 -5 0
-10 -4 -10 -10z"/>
<path d="M1800 839 c0 -5 5 -7 10 -4 6 3 10 8 10 11 0 2 -4 4 -10 4 -5 0 -10
-5 -10 -11z"/>
<path d="M2540 838 c0 -10 -4 -18 -10 -18 -5 0 -10 -5 -10 -11 0 -6 7 -8 16
-5 12 5 15 2 10 -9 -3 -9 -2 -13 4 -10 13 8 13 36 0 55 -8 13 -10 12 -10 -2z"/>
<path d="M2730 839 c0 -5 4 -8 9 -4 5 3 12 1 15 -4 4 -5 -1 -11 -11 -13 -13
-2 -10 -6 11 -16 22 -10 26 -10 19 0 -4 7 -6 21 -5 31 2 11 -3 17 -17 17 -12
0 -21 -5 -21 -11z"/>
<path d="M3671 834 c0 -11 3 -14 6 -6 3 7 2 16 -1 19 -3 4 -6 -2 -5 -13z"/>
<path d="M1525 831 c-7 -12 10 -26 33 -27 14 0 22 5 22 16 0 12 -8 18 -25 18
-14 0 -27 -4 -30 -7z"/>
<path d="M1215 820 c-3 -5 -1 -10 4 -10 6 0 11 5 11 10 0 6 -2 10 -4 10 -3 0
-8 -4 -11 -10z"/>
<path d="M1430 820 c0 -5 3 -9 8 -9 23 4 39 -3 39 -16 0 -8 -4 -15 -9 -15 -4
0 -8 5 -8 10 0 6 -4 10 -9 10 -5 0 -7 -9 -4 -20 3 -11 9 -17 14 -14 5 3 9 -2
9 -11 0 -9 5 -13 10 -10 6 3 10 2 10 -2 0 -5 8 -9 19 -9 12 0 17 6 13 18 -2
10 -8 16 -12 13 -5 -3 -11 -1 -15 4 -3 5 3 14 12 20 17 10 17 10 0 11 -10 0
-20 7 -23 15 -7 17 -54 21 -54 5z"/>
<path d="M1970 820 c0 -5 5 -10 10 -10 6 0 10 5 10 10 0 6 -4 10 -10 10 -5 0
-10 -4 -10 -10z"/>
<path d="M2013 817 c4 -11 1 -20 -7 -23 -10 -4 -8 -11 11 -30 30 -30 39 -31
19 -2 -19 27 -21 42 -3 32 7 -5 7 -1 -3 12 -22 29 -24 30 -17 11z"/>
<path d="M2601 812 c0 -13 -5 -20 -11 -17 -5 3 -10 -2 -10 -12 0 -16 1 -16 16
-1 9 8 14 24 11 34 -4 15 -5 15 -6 -4z"/>
<path d="M2828 814 c-16 -8 -28 -20 -27 -27 0 -9 2 -9 6 1 2 6 10 12 18 12 7
0 18 7 25 15 15 18 13 18 -22 -1z"/>
<path d="M1690 800 c0 -19 3 -21 12 -12 9 9 9 15 0 24 -9 9 -12 7 -12 -12z"/>
<path d="M1750 805 c0 -9 7 -18 15 -22 24 -9 27 1 5 20 -17 14 -20 15 -20 2z"/>
<path d="M2675 810 c-3 -5 -13 -7 -23 -4 -13 5 -14 4 -3 -4 14 -10 48 -5 57 9
3 5 -2 9 -10 9 -8 0 -17 -4 -21 -10z"/>
<path d="M1842 790 c-16 -26 -15 -33 3 -26 8 3 15 1 15 -4 0 -6 -4 -10 -10
-10 -17 0 -11 -20 8 -27 9 -4 20 -11 23 -16 3 -5 9 1 12 12 3 12 0 19 -6 18
-6 -1 -12 7 -13 19 0 11 -5 28 -10 37 -9 15 -11 15 -22 -3z"/>
<path d="M2130 801 c0 -6 4 -13 10 -16 6 -3 7 1 4 9 -7 18 -14 21 -14 7z"/>
<path d="M2300 800 c0 -5 7 -10 16 -10 8 0 12 5 9 10 -3 6 -10 10 -16 10 -5 0
-9 -4 -9 -10z"/>
<path d="M3648 792 c-20 -21 -37 -79 -19 -68 14 9 54 86 44 85 -5 0 -16 -8
-25 -17z"/>
<path d="M1380 786 c0 -9 5 -16 10 -16 6 0 10 4 10 9 0 6 -4 13 -10 16 -5 3
-10 -1 -10 -9z"/>
<path d="M1936 787 c3 -10 9 -15 12 -12 3 3 0 11 -7 18 -10 9 -11 8 -5 -6z"/>
<path d="M1796 775 c-3 -9 -6 -22 -5 -28 0 -7 5 -1 10 12 5 13 8 26 5 28 -2 2
-6 -3 -10 -12z"/>
<path d="M2623 763 c-18 -38 -16 -45 7 -26 19 17 28 53 13 53 -5 0 -14 -12
-20 -27z"/>
<path d="M2832 774 c-8 -8 -10 -23 -7 -35 9 -26 15 -20 21 20 6 35 4 36 -14
15z"/>
<path d="M3090 782 c0 -7 -7 -12 -16 -12 -12 0 -15 -6 -10 -26 5 -17 3 -23 -4
-19 -6 3 -10 -3 -10 -16 0 -18 3 -20 12 -11 14 14 39 84 33 91 -3 2 -5 -1 -5
-7z"/>
<path d="M3607 783 c-4 -3 -7 -13 -7 -22 1 -13 3 -13 11 2 11 19 8 33 -4 20z"/>
<path d="M1323 773 c-7 -2 -13 -11 -13 -19 0 -8 -4 -14 -10 -14 -28 0 -3 -49
31 -62 9 -4 19 -21 24 -40 4 -18 9 -27 12 -20 8 20 26 14 20 -8 -3 -11 -1 -20
4 -20 8 0 13 22 10 43 0 4 4 7 10 7 8 0 8 4 2 13 -6 6 -13 25 -17 42 -4 16
-11 32 -14 35 -4 3 -12 14 -18 24 -12 22 -23 27 -41 19z m28 -17 c5 3 9 0 9
-6 0 -15 -23 -7 -26 8 -1 7 0 8 3 2 2 -5 9 -8 14 -4z m28 -48 c11 -29 -2 -45
-22 -27 -12 12 -12 15 2 26 14 12 14 12 -1 7 -10 -3 -18 -1 -18 5 0 20 31 11
39 -11z"/>
<path d="M1577 773 c-11 -11 -8 -23 6 -20 6 1 11 -4 10 -10 -2 -7 4 -13 14
-13 14 0 14 3 -3 23 -10 12 -19 23 -20 25 0 1 -4 -1 -7 -5z"/>
<path d="M1645 770 c-3 -5 -1 -10 4 -10 6 0 11 5 11 10 0 6 -2 10 -4 10 -3 0
-8 -4 -11 -10z"/>
<path d="M1730 762 c0 -10 6 -19 14 -19 8 0 11 8 8 19 -2 10 -8 18 -13 18 -5
0 -9 -8 -9 -18z"/>
<path d="M2976 764 c-8 -22 -8 -24 8 -24 19 0 28 27 11 34 -7 2 -16 -2 -19
-10z"/>
<path d="M2887 763 c-4 -6 0 -19 9 -27 19 -20 24 -20 24 0 0 8 -4 13 -9 9 -5
-3 -11 3 -13 12 -2 12 -6 14 -11 6z"/>
<path d="M3025 760 c4 -6 11 -8 16 -5 14 9 11 15 -7 15 -8 0 -12 -5 -9 -10z"/>
<path d="M3174 759 c-4 -7 -1 -10 7 -7 15 5 29 -6 47 -37 l11 -20 0 20 c0 11
-3 27 -7 35 -8 18 -48 24 -58 9z"/>
<path d="M1390 750 c0 -5 5 -10 11 -10 5 0 7 5 4 10 -3 6 -8 10 -11 10 -2 0
-4 -4 -4 -10z"/>
<path d="M2330 740 c-10 -18 -8 -20 20 -20 34 0 37 5 16 26 -19 18 -23 18 -36
-6z"/>
<path d="M2542 740 c0 -14 2 -19 5 -12 2 6 2 18 0 25 -3 6 -5 1 -5 -13z"/>
<path d="M3140 748 c0 -28 14 -37 34 -22 19 14 19 14 -3 14 -12 0 -19 4 -16
10 3 6 1 10 -4 10 -6 0 -11 -6 -11 -12z"/>
<path d="M1683 733 c9 -9 19 -14 23 -11 10 10 -6 28 -24 28 -15 0 -15 -1 1
-17z"/>
<path d="M1977 732 c-8 -14 -5 -115 2 -103 6 10 10 9 15 -4 3 -9 10 -14 15
-10 6 3 8 11 5 19 -3 7 2 13 11 13 9 0 15 -10 15 -26 0 -19 3 -22 9 -12 17 27
5 46 -27 45 -23 -2 -33 3 -38 19 -4 13 -1 23 10 29 9 5 16 13 16 17 0 11 -28
22 -33 13z"/>
<path d="M1650 719 c0 -5 5 -7 10 -4 6 3 10 8 10 11 0 2 -4 4 -10 4 -5 0 -10
-5 -10 -11z"/>
<path d="M2042 718 c-16 -16 -15 -29 1 -22 8 3 14 11 14 19 0 18 0 18 -15 3z"/>
<path d="M1421 711 c-8 -5 -9 -11 -3 -15 5 -3 15 1 22 9 14 16 3 20 -19 6z"/>
<path d="M1494 702 c-12 -9 -31 -24 -43 -32 -25 -17 -26 -26 -6 -46 13 -14 15
-13 15 8 0 13 5 30 11 38 9 12 10 11 6 -7 -3 -13 0 -21 6 -20 6 1 13 -8 15
-20 2 -12 10 -24 17 -27 11 -4 14 1 11 17 -3 12 -5 24 -6 27 -2 3 -2 9 -1 14
1 5 -5 6 -14 3 -8 -4 -15 -2 -15 2 0 5 6 11 14 14 8 3 14 15 13 26 -1 12 -1
21 -2 21 0 -1 -10 -8 -21 -18z"/>
<path d="M1585 711 c-3 -6 3 -15 14 -20 16 -9 18 -8 14 9 -6 21 -18 26 -28 11z"/>
<path d="M1751 711 c-10 -6 -10 -10 -1 -16 6 -4 15 -17 20 -29 7 -17 9 -17 9
-3 1 9 6 17 11 17 6 0 10 8 10 17 0 9 -3 13 -7 10 -3 -4 -11 -3 -17 3 -7 5
-18 5 -25 1z"/>
<path d="M2635 700 c3 -5 8 -10 11 -10 2 0 4 5 4 10 0 6 -5 10 -11 10 -5 0 -7
-4 -4 -10z"/>
<path d="M3019 705 c-1 -6 -3 -19 -4 -30 -2 -11 -6 -32 -10 -47 -6 -24 -5 -26
15 -21 24 6 35 25 27 45 -3 8 -9 3 -15 -12 -8 -18 -11 -20 -11 -7 -1 9 5 26
11 37 10 15 10 22 0 32 -6 6 -13 8 -13 3z"/>
<path d="M3098 704 c-5 -4 -8 -19 -8 -33 0 -18 3 -22 11 -14 6 6 9 21 7 33 -1
12 -6 18 -10 14z"/>
<path d="M2936 692 c-3 -6 -1 -12 5 -14 8 -3 6 -13 -6 -31 -10 -15 -15 -30
-12 -33 11 -12 38 56 29 73 -6 9 -12 12 -16 5z"/>
<path d="M3140 691 c0 -5 5 -13 10 -16 6 -3 10 -2 10 4 0 5 -4 13 -10 16 -5 3
-10 2 -10 -4z"/>
<path d="M2078 683 c10 -4 10 -8 0 -21 -12 -15 -11 -16 5 -3 9 7 17 17 17 22
0 5 -8 9 -17 8 -12 0 -13 -2 -5 -6z"/>
<path d="M2530 680 c0 -5 5 -10 10 -10 6 0 10 5 10 10 0 6 -4 10 -10 10 -5 0
-10 -4 -10 -10z"/>
<path d="M3207 664 c-19 -26 -23 -59 -5 -48 8 5 9 1 5 -14 -4 -12 -10 -31 -13
-42 -4 -11 -2 -20 4 -20 6 0 8 -10 4 -22 -3 -14 -2 -19 7 -14 6 4 10 22 8 42
-3 19 0 37 4 40 5 3 6 16 3 29 -3 13 0 26 7 30 7 5 10 4 5 -3 -3 -6 1 -18 10
-26 8 -9 11 -16 5 -16 -6 0 -11 -7 -11 -15 0 -18 16 -20 23 -2 4 9 8 8 17 -3
10 -13 11 -12 6 3 -3 10 -6 30 -6 44 0 22 -2 24 -16 13 -8 -8 -14 -9 -13 -4 8
45 -18 62 -44 28z"/>
<path d="M1670 670 c-12 -8 -12 -10 -1 -10 7 0 11 -6 7 -15 -3 -8 -1 -15 3
-15 13 0 20 25 12 38 -4 7 -12 8 -21 2z"/>
<path d="M2717 666 c-4 -10 -5 -21 -2 -24 9 -9 17 6 13 25 -3 17 -4 17 -11 -1z"/>
<path d="M2822 664 c-7 -8 -8 -14 -3 -14 17 0 1 -29 -20 -35 -11 -4 -17 -10
-14 -15 7 -11 37 -1 47 14 15 23 16 -1 1 -32 -12 -24 -13 -36 -5 -44 13 -13
13 -12 34 80 15 63 14 80 -1 40 l-9 -23 -9 21 c-7 19 -10 20 -21 8z"/>
<path d="M2891 664 c0 -11 3 -14 6 -6 3 7 2 16 -1 19 -3 4 -6 -2 -5 -13z"/>
<path d="M1556 655 c4 -8 2 -15 -3 -15 -5 0 -9 -9 -10 -19 -1 -14 3 -18 13
-14 16 6 20 63 4 63 -5 0 -7 -7 -4 -15z"/>
<path d="M1830 659 c0 -10 31 -20 41 -13 17 10 9 22 -16 20 -14 0 -25 -4 -25
-7z"/>
<path d="M2560 650 c0 -11 2 -20 5 -20 2 0 9 9 15 20 9 16 8 20 -5 20 -8 0
-15 -9 -15 -20z"/>
<path d="M2660 659 c0 -5 5 -7 10 -4 6 3 10 8 10 11 0 2 -4 4 -10 4 -5 0 -10
-5 -10 -11z"/>
<path d="M1928 653 c7 -3 16 -2 19 1 4 3 -2 6 -13 5 -11 0 -14 -3 -6 -6z"/>
<path d="M2618 653 c7 -3 16 -2 19 1 4 3 -2 6 -13 5 -11 0 -14 -3 -6 -6z"/>
<path d="M2756 638 c-5 -16 -14 -28 -22 -28 -8 0 -14 -4 -14 -10 0 -15 19 -12
36 5 9 8 14 25 12 37 -4 22 -5 21 -12 -4z"/>
<path d="M2656 621 c-25 -26 -30 -28 -43 -15 -20 19 -26 18 -51 -11 -25 -29
-21 -32 12 -10 l23 15 -1 -52 c-1 -29 3 -58 10 -65 8 -8 10 1 6 38 -4 45 -3
49 17 49 12 0 24 -7 28 -16 6 -15 7 -15 20 1 7 10 15 16 18 13 4 -3 -5 -18
-19 -33 -15 -16 -26 -32 -26 -37 0 -5 -6 -6 -12 -3 -7 4 -4 -1 7 -10 18 -14
21 -14 32 2 7 9 13 23 13 31 0 7 5 10 10 7 16 -10 12 33 -6 60 -9 14 -13 33
-9 45 9 27 4 25 -29 -9z m19 -40 c-3 -6 -11 -11 -17 -11 -6 0 -6 6 2 15 14 17
26 13 15 -4z"/>
<path d="M1737 625 c6 -17 25 -15 31 3 2 7 -5 12 -17 12 -14 0 -19 -5 -14 -15z"/>
<path d="M1826 624 c-3 -9 -6 -25 -6 -37 0 -19 2 -19 15 7 8 15 15 32 15 37 0
15 -17 10 -24 -7z"/>
<path d="M1920 629 c0 -5 5 -7 10 -4 6 3 10 8 10 11 0 2 -4 4 -10 4 -5 0 -10
-5 -10 -11z"/>
<path d="M3055 603 c-14 -21 -25 -31 -26 -23 0 10 -3 8 -9 -5 -15 -35 -11 -39
15 -11 14 15 29 25 34 22 5 -3 11 8 13 24 3 17 3 30 2 30 -2 0 -15 -17 -29
-37z"/>
<path d="M1587 614 c4 -11 -1 -22 -12 -30 -11 -8 -13 -14 -6 -14 7 0 10 -3 7
-8 -2 -4 2 -16 10 -27 11 -15 14 -16 14 -3 0 12 6 15 22 10 11 -3 19 -1 16 4
-2 5 -12 26 -22 47 -16 36 -42 54 -29 21z"/>
<path d="M1685 615 c-19 -9 -24 -14 -12 -14 9 -1 17 -6 17 -13 0 -8 6 -7 16 4
25 25 13 38 -21 23z"/>
<path d="M1872 618 c-15 -15 -16 -38 -2 -38 6 0 10 -8 11 -17 0 -11 3 -13 6
-5 2 6 13 12 24 12 10 0 19 5 19 10 0 10 -14 14 -38 11 -10 -2 -12 4 -7 18 7
24 4 26 -13 9z"/>
<path d="M2891 614 c0 -11 3 -14 6 -6 3 7 2 16 -1 19 -3 4 -6 -2 -5 -13z"/>
<path d="M1318 614 c-8 -7 2 -44 12 -44 4 0 5 11 2 25 -5 27 -6 28 -14 19z"/>
<path d="M2330 611 c0 -5 7 -11 15 -15 9 -3 15 0 15 9 0 8 -7 15 -15 15 -8 0
-15 -4 -15 -9z"/>
<path d="M2947 613 c-4 -3 -7 -11 -7 -17 0 -6 5 -5 12 2 6 6 9 14 7 17 -3 3
-9 2 -12 -2z"/>
<path d="M3118 596 c-6 -14 -15 -26 -20 -26 -4 0 -8 -5 -8 -11 0 -5 5 -7 10
-4 6 3 10 2 10 -3 0 -13 -29 -24 -43 -15 -7 3 -9 2 -4 -2 4 -5 0 -17 -10 -27
-23 -25 -4 -23 24 4 36 34 39 13 4 -27 -17 -20 -31 -43 -30 -53 0 -10 3 -12 6
-4 2 6 12 12 21 12 14 0 15 2 3 9 -12 8 -12 12 -2 24 14 18 51 11 51 -10 0 -8
7 -21 15 -29 13 -14 15 -14 15 0 0 9 -4 16 -8 16 -10 0 -32 60 -32 89 0 12 7
32 16 45 10 16 12 26 5 31 -6 3 -16 -5 -23 -19z"/>
<path d="M1425 590 c-3 -5 1 -10 9 -10 9 0 16 5 16 10 0 6 -4 10 -9 10 -6 0
-13 -4 -16 -10z"/>
<path d="M1770 586 c0 -7 -9 -16 -19 -19 -15 -4 -18 -10 -13 -28 l7 -24 3 23
c2 16 8 22 19 18 8 -3 17 -6 19 -6 2 0 4 -4 4 -10 0 -5 -4 -10 -10 -10 -17 0
-50 -34 -50 -51 0 -9 6 -19 14 -22 9 -4 12 0 10 11 -5 20 22 59 33 48 4 -4 2
-16 -5 -27 -12 -19 -11 -20 9 -17 12 2 24 9 27 17 3 8 0 11 -7 7 -7 -5 -11 2
-11 19 0 20 4 26 15 21 9 -3 15 0 15 9 0 8 -8 12 -20 10 -11 -2 -22 0 -25 6
-4 5 -2 9 4 9 6 0 8 7 5 15 -8 19 -24 20 -24 1z"/>
<path d="M1955 590 c-19 -8 -19 -9 3 -9 12 -1 22 4 22 9 0 6 -1 10 -2 9 -2 0
-12 -4 -23 -9z"/>
<path d="M2750 555 c-6 -19 -15 -33 -20 -30 -4 3 -10 -2 -14 -10 -8 -23 33
-14 61 13 23 23 32 49 13 37 -5 -3 -10 1 -10 9 0 29 -18 17 -30 -19z"/>
<path d="M1500 560 c0 -11 4 -20 8 -20 4 0 8 9 8 20 0 11 -4 20 -8 20 -4 0 -8
-9 -8 -20z"/>
<path d="M1655 570 c-3 -6 0 -17 9 -25 8 -9 17 -11 21 -6 3 5 1 12 -5 16 -6 4
-8 11 -5 16 4 5 2 9 -4 9 -5 0 -13 -5 -16 -10z"/>
<path d="M1990 580 c-6 -51 -6 -99 1 -94 5 3 6 -2 3 -10 -3 -9 -14 -16 -23
-16 -13 0 -13 -2 -2 -9 8 -5 9 -11 3 -15 -6 -4 -14 0 -19 8 -4 8 -11 14 -14
13 -14 -5 -36 30 -28 45 6 12 3 17 -11 21 -14 4 -20 0 -20 -11 0 -14 -2 -14
-9 -3 -12 18 -21 0 -14 -27 4 -17 9 -20 18 -12 17 14 31 -6 26 -37 -1 -13 2
-23 7 -23 6 0 8 10 5 23 l-5 22 20 -22 c11 -12 23 -19 26 -15 4 3 4 -2 0 -11
-6 -17 -4 -17 29 -4 19 9 39 12 43 9 5 -4 3 0 -4 9 -13 17 -12 45 1 67 5 7 4
12 -2 12 -6 0 -11 10 -11 23 1 20 2 20 13 5 8 -9 18 -13 25 -9 18 11 5 37 -20
38 -12 1 -25 8 -29 15 -5 7 -9 11 -9 8z"/>
<path d="M1275 560 c-3 -5 -2 -10 4 -10 5 0 13 5 16 10 3 6 2 10 -4 10 -5 0
-13 -4 -16 -10z"/>
<path d="M1340 560 c-12 -8 -9 -10 13 -10 15 0 27 5 27 10 0 13 -20 13 -40 0z"/>
<path d="M1400 560 c0 -6 5 -8 10 -5 16 10 12 -7 -7 -28 -10 -11 -12 -17 -5
-13 7 4 14 1 18 -7 6 -16 44 -12 44 4 0 5 12 10 28 10 23 2 24 2 4 6 -14 3
-22 11 -20 21 2 13 -6 18 -34 20 -23 2 -38 -1 -38 -8z m64 -15 c-4 -8 -10 -15
-15 -15 -5 0 -9 7 -9 15 0 8 7 15 15 15 9 0 12 -6 9 -15z"/>
<path d="M1530 560 c0 -6 4 -9 9 -5 5 3 12 -2 14 -10 4 -12 5 -12 3 1 -1 19
-26 32 -26 14z"/>
<path d="M2886 555 c-3 -9 -2 -24 3 -32 7 -14 10 -13 16 6 8 27 -9 51 -19 26z"/>
<path d="M1845 550 c3 -5 8 -10 11 -10 2 0 4 5 4 10 0 6 -5 10 -11 10 -5 0 -7
-4 -4 -10z"/>
<path d="M2190 544 c0 -8 5 -12 10 -9 6 3 10 10 10 16 0 5 -4 9 -10 9 -5 0
-10 -7 -10 -16z"/>
<path d="M2957 549 c-21 -12 -22 -35 -2 -43 10 -3 17 3 21 20 8 31 4 35 -19
23z"/>
<path d="M3370 549 c0 -5 5 -7 10 -4 6 3 10 8 10 11 0 2 -4 4 -10 4 -5 0 -10
-5 -10 -11z"/>
<path d="M3140 542 c0 -5 7 -17 15 -28 14 -18 14 -18 15 9 0 17 -5 27 -15 27
-8 0 -15 -4 -15 -8z"/>
<path d="M1110 530 c0 -5 7 -10 15 -10 8 0 15 -5 15 -12 0 -6 2 -9 5 -6 3 3 3
13 -1 22 -7 17 -34 22 -34 6z"/>
<path d="M1610 514 c0 -8 5 -12 10 -9 6 4 8 11 5 16 -9 14 -15 11 -15 -7z"/>
<path d="M1700 515 c-10 -12 -10 -15 4 -15 9 0 16 7 16 15 0 8 -2 15 -4 15 -2
0 -9 -7 -16 -15z"/>
<path d="M2165 505 c-4 -11 -10 -23 -12 -28 -3 -4 9 -6 26 -5 30 2 45 18 17
18 -8 0 -16 8 -19 18 -3 15 -5 15 -12 -3z"/>
<path d="M2781 504 c0 -11 3 -14 6 -6 3 7 2 16 -1 19 -3 4 -6 -2 -5 -13z"/>
<path d="M1538 500 c-15 -4 -29 -6 -31 -4 -3 3 -7 -2 -10 -11 -7 -18 -6 -18
28 -5 20 8 25 7 19 -3 -5 -9 -4 -9 7 1 20 19 31 14 19 -8 -6 -11 -7 -20 -2
-20 5 0 14 11 20 24 9 20 8 25 -4 30 -9 3 -16 6 -17 5 -1 0 -14 -4 -29 -9z"/>
<path d="M2230 490 c0 -5 5 -10 10 -10 6 0 10 5 10 10 0 6 -4 10 -10 10 -5 0
-10 -4 -10 -10z"/>
<path d="M1621 483 c5 -32 -3 -63 -16 -63 -8 0 -15 -5 -15 -11 0 -11 15 -5 41
18 17 14 15 63 -2 63 -5 0 -8 -3 -8 -7z"/>
<path d="M1673 468 c-2 -16 1 -18 10 -9 7 7 8 14 1 21 -6 6 -10 2 -11 -12z"/>
<path d="M2696 481 c-4 -6 -2 -11 3 -11 23 0 9 -30 -24 -56 -40 -30 -41 -45
-1 -19 25 17 26 17 26 -4 0 -12 4 -20 9 -17 5 4 7 -3 4 -14 -3 -11 -1 -20 5
-20 5 0 12 13 14 29 2 17 1 28 -4 25 -10 -7 -10 7 1 25 5 8 16 11 30 6 16 -5
19 -10 12 -24 -5 -9 -6 -23 -1 -30 10 -17 33 -4 26 15 -3 8 -1 14 4 14 6 0 10
5 10 11 0 5 -5 7 -10 4 -6 -3 -14 5 -20 19 -5 14 -16 26 -24 26 -10 0 -13 6
-10 15 7 17 -11 21 -22 4 -5 -8 -9 -8 -14 1 -5 9 -9 9 -14 1z"/>
<path d="M2855 480 c3 -5 8 -10 11 -10 2 0 4 5 4 10 0 6 -5 10 -11 10 -5 0 -7
-4 -4 -10z"/>
<path d="M2950 475 c0 -8 2 -15 4 -15 2 0 6 7 10 15 3 8 1 15 -4 15 -6 0 -10
-7 -10 -15z"/>
<path d="M3160 480 c-13 -8 -12 -10 3 -10 9 0 17 5 17 10 0 12 -1 12 -20 0z"/>
<path d="M3198 467 c-21 -33 -29 -57 -18 -57 6 0 10 -8 10 -17 0 -14 -2 -15
-9 -5 -10 17 -21 -6 -21 -45 0 -18 4 -24 15 -19 9 3 15 0 15 -9 0 -8 -4 -15
-10 -15 -5 0 -10 -4 -10 -10 0 -5 6 -10 14 -10 18 0 27 49 14 73 -7 13 -6 23
1 30 14 14 14 47 1 47 -5 0 -10 5 -10 12 0 9 3 9 12 0 19 -19 28 -14 28 12 0
34 -15 40 -32 13z"/>
<path d="M2036 471 c-3 -4 4 -7 14 -6 27 2 33 10 10 12 -11 1 -22 -2 -24 -6z"/>
<path d="M3025 457 c3 -12 -1 -38 -9 -57 -8 -19 -15 -29 -16 -22 0 6 -9 12
-21 12 -19 0 -19 -1 -5 -22 20 -28 20 -48 1 -48 -8 0 -15 -4 -15 -10 0 -5 -7
-7 -16 -3 -11 4 -15 15 -12 39 3 25 0 34 -11 34 -12 0 -12 3 -3 12 16 16 15
25 -4 25 -12 0 -14 -7 -10 -27 2 -15 0 -32 -7 -39 -9 -9 -9 -14 2 -20 11 -7
11 -10 0 -15 -9 -4 -10 -8 -3 -11 6 -3 9 -18 7 -33 l-4 -27 15 25 c8 14 15 20
16 13 0 -7 7 -10 15 -7 9 4 15 0 15 -7 1 -8 6 -3 13 11 20 42 52 90 59 90 4 0
1 -19 -7 -41 -17 -47 -20 -89 -4 -49 6 13 13 20 17 15 4 -6 12 -11 19 -12 21
-4 31 21 23 62 -4 22 -8 32 -9 23 0 -9 -6 -20 -13 -24 -8 -5 -9 -2 -4 11 4 11
0 25 -9 35 -12 13 -13 23 -5 44 10 28 6 46 -11 46 -5 0 -7 -10 -4 -23z"/>
<path d="M1495 450 c-18 -20 -18 -21 5 -12 13 5 26 14 28 20 6 19 -13 14 -33
-8z"/>
<path d="M2540 463 c1 -21 28 -55 34 -44 4 6 2 11 -3 11 -6 0 -11 9 -11 20 0
11 -4 20 -10 20 -5 0 -10 -3 -10 -7z"/>
<path d="M1798 453 c7 -3 16 -2 19 1 4 3 -2 6 -13 5 -11 0 -14 -3 -6 -6z"/>
<path d="M2083 435 c-8 -19 -8 -22 3 -18 8 3 14 -1 14 -10 0 -9 4 -18 8 -21
12 -7 11 24 -3 50 l-11 21 -11 -22z"/>
<path d="M2166 453 c5 -5 12 -12 15 -16 3 -5 9 -2 12 7 5 12 0 16 -15 16 -12
0 -17 -3 -12 -7z"/>
<path d="M2960 441 c-6 -12 -7 -21 -1 -21 10 0 24 30 17 37 -2 3 -9 -5 -16
-16z"/>
<path d="M2995 440 c-4 -12 -5 -24 -2 -27 3 -2 8 5 12 17 4 12 5 24 2 27 -3 2
-8 -5 -12 -17z"/>
<path d="M1825 436 c-18 -13 -18 -14 8 -9 21 4 27 1 27 -11 0 -10 5 -14 10
-11 6 3 10 15 10 26 0 23 -27 25 -55 5z"/>
<path d="M2471 434 c0 -11 3 -14 6 -6 3 7 2 16 -1 19 -3 4 -6 -2 -5 -13z"/>
<path d="M2600 429 c0 -13 5 -31 10 -39 7 -11 8 -5 4 20 -8 43 -14 51 -14 19z"/>
<path d="M2655 440 c-3 -5 -1 -10 4 -10 6 0 11 5 11 10 0 6 -2 10 -4 10 -3 0
-8 -4 -11 -10z"/>
<path d="M2875 440 c-3 -5 -1 -10 4 -10 6 0 11 5 11 10 0 6 -2 10 -4 10 -3 0
-8 -4 -11 -10z"/>
<path d="M2900 440 c0 -5 5 -10 10 -10 6 0 10 5 10 10 0 6 -4 10 -10 10 -5 0
-10 -4 -10 -10z"/>
<path d="M1510 425 c-10 -12 -10 -15 1 -15 10 -1 9 -4 -3 -14 -22 -16 -24 -30
-4 -23 23 9 25 -26 3 -50 -11 -13 -15 -23 -9 -23 6 0 14 5 17 10 3 6 11 10 16
10 6 0 7 -5 3 -12 -4 -7 -3 -8 4 -4 7 4 12 1 12 -9 0 -13 2 -14 14 -3 8 7 12
16 9 21 -2 4 3 7 11 7 8 0 18 5 22 12 4 6 3 8 -2 5 -6 -3 -16 -2 -24 4 -9 5
-10 9 -3 9 6 0 10 8 8 18 -2 9 -4 21 -4 27 -1 5 -6 4 -13 -3 -15 -15 -38 -16
-38 -2 0 6 6 10 14 10 21 0 31 21 15 31 -20 13 -35 11 -49 -6z m47 -11 c-3 -3
-12 -4 -19 -1 -8 3 -5 6 6 6 11 1 17 -2 13 -5z"/>
<path d="M2140 425 c0 -8 2 -15 4 -15 2 0 6 7 10 15 3 8 1 15 -4 15 -6 0 -10
-7 -10 -15z"/>
<path d="M1710 410 c0 -8 5 -22 11 -30 8 -12 9 -11 7 5 -2 11 3 25 12 32 13
10 12 12 -7 10 -13 -1 -23 -8 -23 -17z"/>
<path d="M2256 421 c-3 -5 1 -14 9 -21 8 -7 15 -19 15 -27 0 -8 5 -11 10 -8
16 10 12 35 -6 35 -14 0 -14 3 -4 15 10 12 10 15 -3 15 -9 0 -18 -4 -21 -9z"/>
<path d="M2496 423 c-11 -11 -6 -23 9 -23 8 0 15 4 15 9 0 13 -16 22 -24 14z"/>
<path d="M2216 414 c7 -3 10 -15 7 -27 -4 -20 -3 -20 7 -4 12 19 6 37 -13 36
-9 0 -9 -2 -1 -5z"/>
<path d="M2360 405 c0 -8 7 -15 15 -15 7 0 19 -8 24 -17 6 -10 10 -13 10 -8 0
11 -34 55 -43 55 -3 0 -6 -7 -6 -15z"/>
<path d="M1625 400 c-3 -6 1 -7 9 -4 18 7 21 14 7 14 -6 0 -13 -4 -16 -10z"/>
<path d="M1804 402 c4 -7 1 -12 -8 -12 -9 0 -16 -4 -16 -9 0 -5 -3 -18 -6 -28
-5 -15 -4 -15 7 2 7 11 19 25 27 31 12 9 13 13 2 19 -9 5 -11 4 -6 -3z"/>
<path d="M2461 394 c0 -11 3 -14 6 -6 3 7 2 16 -1 19 -3 4 -6 -2 -5 -13z"/>
<path d="M2870 401 c0 -6 4 -13 10 -16 6 -3 7 1 4 9 -7 18 -14 21 -14 7z"/>
<path d="M3227 390 c3 -11 7 -20 8 -20 1 0 5 9 8 20 3 12 0 20 -8 20 -8 0 -11
-8 -8 -20z"/>
<path d="M1983 385 c-3 -9 -3 -19 1 -22 3 -4 6 -1 6 6 0 7 4 10 9 7 5 -3 11 1
15 9 3 9 0 15 -10 15 -8 0 -17 -7 -21 -15z"/>
<path d="M1642 378 c-15 -19 -3 -71 15 -64 8 3 11 1 8 -4 -3 -6 -2 -10 3 -10
10 0 10 -66 -1 -76 -4 -4 -7 0 -7 8 0 17 -23 19 -37 3 -4 -4 -3 -5 4 -2 7 4
15 -4 20 -20 l10 -28 12 23 c7 13 21 22 35 22 28 0 36 8 29 26 -4 11 -8 12
-19 3 -24 -19 -26 -4 -4 24 12 16 16 28 10 32 -5 3 -10 1 -10 -5 0 -6 -5 -8
-10 -5 -6 4 -8 11 -5 16 4 5 -5 9 -18 9 -14 0 -28 7 -31 16 -8 22 -8 26 4 19
6 -3 10 1 10 9 0 19 -4 20 -18 4z"/>
<path d="M2167 383 c-4 -3 -7 -11 -7 -17 0 -6 5 -5 12 2 6 6 9 14 7 17 -3 3
-9 2 -12 -2z"/>
<path d="M2515 380 c3 -5 10 -10 16 -10 5 0 9 5 9 10 0 6 -7 10 -16 10 -8 0
-12 -4 -9 -10z"/>
<path d="M2126 365 c-3 -9 -6 -22 -5 -28 0 -7 5 -1 10 12 5 13 8 26 5 28 -2 2
-6 -3 -10 -12z"/>
<path d="M2564 364 c3 -9 6 -20 6 -25 0 -5 4 -9 9 -9 4 0 6 11 3 25 -2 14 -9
25 -14 25 -6 0 -7 -7 -4 -16z"/>
<path d="M2636 359 c-14 -9 -15 -13 -5 -19 10 -7 10 -11 0 -24 -10 -12 -17
-13 -26 -6 -7 6 -16 7 -19 2 -5 -9 28 -42 43 -42 5 0 14 7 21 15 10 12 10 15
-1 15 -10 0 -11 2 0 13 10 10 15 9 25 -5 18 -24 24 -22 24 8 0 17 -5 24 -14
20 -9 -3 -14 2 -14 14 0 23 -7 24 -34 9z"/>
<path d="M2039 354 c-3 -5 -6 -21 -7 -36 -1 -21 3 -28 16 -28 15 0 15 2 2 10
-10 7 -12 12 -4 18 6 4 8 16 4 26 -3 11 -9 15 -11 10z"/>
<path d="M2234 334 c5 -24 3 -33 -8 -37 -18 -7 -22 -37 -6 -37 6 0 10 7 10 15
0 18 16 20 23 3 4 -10 6 -10 6 0 1 6 5 12 11 12 6 0 6 -9 0 -25 -6 -15 -6 -25
0 -25 11 0 25 39 21 63 -1 9 3 17 8 17 6 0 11 5 11 10 0 19 -28 10 -33 -10 -3
-11 -11 -20 -17 -20 -9 0 -9 4 -2 13 7 8 4 18 -10 32 -20 20 -20 20 -14 -11z"/>
<path d="M1738 343 c7 -3 16 -2 19 1 4 3 -2 6 -13 5 -11 0 -14 -3 -6 -6z"/>
<path d="M2191 332 c-8 -15 -5 -18 12 -19 12 0 17 1 10 4 -7 2 -9 11 -6 19 8
20 -4 17 -16 -4z"/>
<path d="M1765 320 c-3 -5 -1 -10 4 -10 6 0 11 5 11 10 0 6 -2 10 -4 10 -3 0
-8 -4 -11 -10z"/>
<path d="M1840 306 c0 -8 -6 -16 -12 -19 -7 -3 -3 -4 10 -4 14 1 22 8 22 19 0
10 -4 18 -10 18 -5 0 -10 -6 -10 -14z"/>
<path d="M2121 308 c-1 -11 6 -16 18 -15 12 1 17 6 14 15 -4 10 -8 11 -13 2
-6 -9 -9 -9 -13 1 -4 10 -6 9 -6 -3z"/>
<path d="M2380 309 c0 -5 5 -7 10 -4 6 3 10 8 10 11 0 2 -4 4 -10 4 -5 0 -10
-5 -10 -11z"/>
<path d="M2721 294 c0 -11 3 -14 6 -6 3 7 2 16 -1 19 -3 4 -6 -2 -5 -13z"/>
<path d="M2755 300 c3 -5 8 -10 11 -10 2 0 4 5 4 10 0 6 -5 10 -11 10 -5 0 -7
-4 -4 -10z"/>
<path d="M1643 285 c0 -8 4 -12 9 -9 4 3 8 9 8 15 0 5 -4 9 -8 9 -5 0 -9 -7
-9 -15z"/>
<path d="M2003 270 c-6 -17 -7 -30 -2 -30 4 0 6 -7 3 -15 -4 -8 -2 -15 4 -15
12 0 22 60 13 77 -4 8 -11 2 -18 -17z"/>
<path d="M2550 280 c0 -5 -12 -16 -27 -24 -20 -11 -23 -15 -10 -16 9 0 17 -4
17 -9 0 -5 11 -4 25 2 28 13 33 27 10 27 -9 0 -12 6 -9 15 4 8 3 15 0 15 -3 0
-6 -4 -6 -10z"/>
<path d="M2500 270 c0 -5 5 -10 10 -10 6 0 10 5 10 10 0 6 -4 10 -10 10 -5 0
-10 -4 -10 -10z"/>
<path d="M2430 240 c0 -5 5 -10 11 -10 5 0 7 5 4 10 -3 6 -8 10 -11 10 -2 0
-4 -4 -4 -10z"/>
<path d="M2615 240 c-3 -5 1 -10 9 -10 8 0 18 5 21 10 3 6 -1 10 -9 10 -8 0
-18 -4 -21 -10z"/>
<path d="M1735 210 c-8 -13 -1 -24 14 -19 6 3 7 10 2 18 -6 10 -10 10 -16 1z"/>
<path d="M2250 205 c-7 -9 -11 -18 -8 -20 3 -3 11 1 18 10 7 9 11 18 8 20 -3
3 -11 -1 -18 -10z"/>
<path d="M2597 194 c-12 -13 -7 -34 8 -34 8 0 15 -4 15 -10 0 -5 9 -2 19 7 11
9 18 21 15 25 -3 5 -12 1 -19 -9 -13 -17 -14 -17 -22 5 -5 13 -12 20 -16 16z"/>
<path d="M2670 159 c0 -5 5 -7 10 -4 6 3 10 8 10 11 0 2 -4 4 -10 4 -5 0 -10
-5 -10 -11z"/>
</g>
</svg>
